STARTFONT 2.1
FONT -FontForge-Goethe-Medium-R-Normal--16-120-100-100-P-66-ISO10646-1
SIZE 12 100 100
FONTBOUNDINGBOX 29 16 -8 -5
COMMENT "Generated by fontforge, http://fontforge.sourceforge.net"
COMMENT "Created by Rebecca Bettencourt with FontForge 2.0 (http://fontforge.sf.net)"
STARTPROPERTIES 40
FOUNDRY "FontForge"
FAMILY_NAME "Goethe"
WEIGHT_NAME "Medium"
SLANT "R"
SETWIDTH_NAME "Normal"
ADD_STYLE_NAME ""
PIXEL_SIZE 16
POINT_SIZE 120
RESOLUTION_X 100
RESOLUTION_Y 100
SPACING "P"
AVERAGE_WIDTH 66
CHARSET_REGISTRY "ISO10646"
CHARSET_ENCODING "1"
FONTNAME_REGISTRY ""
CHARSET_COLLECTIONS "ISO8859-2 ISO8859-5 ISO8859-7 ISO8859-9 ISO8859-4 ISO10646-1"
FONT_NAME "Goethe"
FACE_NAME "Goethe"
COPYRIGHT "Created by Rebecca Bettencourt with FontForge 2.0 (http://fontforge.sf.net)"
FONT_VERSION "1.0"
FONT_ASCENT 11
FONT_DESCENT 5
UNDERLINE_POSITION -1
UNDERLINE_THICKNESS 1
X_HEIGHT 5
CAP_HEIGHT 8
RAW_ASCENT 700
RAW_DESCENT 300
NORM_SPACE 4
RELATIVE_WEIGHT 50
RELATIVE_SETWIDTH 50
SUPERSCRIPT_X 0
SUPERSCRIPT_Y 8
SUPERSCRIPT_SIZE 16
SUBSCRIPT_X 0
SUBSCRIPT_Y 8
SUBSCRIPT_SIZE 16
FIGURE_WIDTH 6
AVG_LOWERCASE_WIDTH 62
AVG_UPPERCASE_WIDTH 75
ENDPROPERTIES
CHARS 813
STARTCHAR space
ENCODING 32
SWIDTH 250 0
DWIDTH 4 0
BBX 1 1 0 0
BITMAP
00
ENDCHAR
STARTCHAR exclam
ENCODING 33
SWIDTH 100 0
DWIDTH 2 0
BBX 1 9 0 0
BITMAP
80
80
80
80
80
80
80
80
80
ENDCHAR
STARTCHAR quotedbl
ENCODING 34
SWIDTH 200 0
DWIDTH 3 0
BBX 1 3 0 7
BITMAP
80
80
80
ENDCHAR
STARTCHAR numbersign
ENCODING 35
SWIDTH 450 0
DWIDTH 7 0
BBX 6 7 0 2
BITMAP
24
24
7C
08
FC
50
50
ENDCHAR
STARTCHAR dollar
ENCODING 36
SWIDTH 400 0
DWIDTH 6 0
BBX 6 12 0 -2
BITMAP
20
34
6C
A4
60
30
28
24
E8
B0
20
20
ENDCHAR
STARTCHAR percent
ENCODING 37
SWIDTH 500 0
DWIDTH 8 0
BBX 7 9 0 0
BITMAP
5C
A4
A8
50
10
14
2A
0A
04
ENDCHAR
STARTCHAR ampersand
ENCODING 38
SWIDTH 500 0
DWIDTH 8 0
BBX 7 8 0 0
BITMAP
60
60
00
66
90
94
54
20
ENDCHAR
STARTCHAR quotesingle
ENCODING 39
SWIDTH 100 0
DWIDTH 2 0
BBX 1 3 0 7
BITMAP
80
80
80
ENDCHAR
STARTCHAR parenleft
ENCODING 40
SWIDTH 200 0
DWIDTH 3 0
BBX 2 11 0 -2
BITMAP
40
40
40
80
80
80
80
80
40
40
40
ENDCHAR
STARTCHAR parenright
ENCODING 41
SWIDTH 200 0
DWIDTH 3 0
BBX 2 12 0 -2
BITMAP
80
40
40
40
00
00
00
00
00
40
40
40
ENDCHAR
STARTCHAR asterisk
ENCODING 42
SWIDTH 300 0
DWIDTH 5 0
BBX 4 3 0 6
BITMAP
90
60
90
ENDCHAR
STARTCHAR plus
ENCODING 43
SWIDTH 400 0
DWIDTH 6 0
BBX 6 5 0 1
BITMAP
20
20
FC
20
20
ENDCHAR
STARTCHAR comma
ENCODING 44
SWIDTH 150 0
DWIDTH 2 0
BBX 2 3 0 -1
BITMAP
40
40
80
ENDCHAR
STARTCHAR hyphen
ENCODING 45
SWIDTH 350 0
DWIDTH 6 0
BBX 5 1 0 3
BITMAP
F8
ENDCHAR
STARTCHAR period
ENCODING 46
SWIDTH 100 0
DWIDTH 2 0
BBX 1 2 0 0
BITMAP
80
80
ENDCHAR
STARTCHAR slash
ENCODING 47
SWIDTH 300 0
DWIDTH 5 0
BBX 4 12 0 -2
BITMAP
10
10
10
20
20
00
00
00
40
40
80
80
ENDCHAR
STARTCHAR zero
ENCODING 48
SWIDTH 400 0
DWIDTH 6 0
BBX 6 9 0 0
BITMAP
30
48
48
84
84
84
84
48
30
ENDCHAR
STARTCHAR one
ENCODING 49
SWIDTH 400 0
DWIDTH 6 0
BBX 2 9 2 0
BITMAP
80
80
80
80
80
80
80
80
C0
ENDCHAR
STARTCHAR two
ENCODING 50
SWIDTH 400 0
DWIDTH 6 0
BBX 6 9 0 0
BITMAP
70
88
04
08
10
20
00
84
FC
ENDCHAR
STARTCHAR three
ENCODING 51
SWIDTH 400 0
DWIDTH 6 0
BBX 6 9 0 0
BITMAP
70
88
04
08
30
08
04
88
70
ENDCHAR
STARTCHAR four
ENCODING 52
SWIDTH 400 0
DWIDTH 6 0
BBX 6 9 0 0
BITMAP
10
10
10
50
90
FC
10
10
38
ENDCHAR
STARTCHAR five
ENCODING 53
SWIDTH 400 0
DWIDTH 6 0
BBX 6 9 0 0
BITMAP
7C
40
80
F0
08
04
04
88
70
ENDCHAR
STARTCHAR six
ENCODING 54
SWIDTH 400 0
DWIDTH 6 0
BBX 6 9 0 0
BITMAP
38
00
40
B0
C8
84
84
48
30
ENDCHAR
STARTCHAR seven
ENCODING 55
SWIDTH 400 0
DWIDTH 6 0
BBX 6 9 0 0
BITMAP
FC
84
08
10
10
10
20
20
20
ENDCHAR
STARTCHAR eight
ENCODING 56
SWIDTH 400 0
DWIDTH 6 0
BBX 6 9 0 0
BITMAP
30
48
84
48
30
48
84
48
30
ENDCHAR
STARTCHAR nine
ENCODING 57
SWIDTH 400 0
DWIDTH 6 0
BBX 6 9 0 0
BITMAP
30
48
84
84
4C
34
04
10
20
ENDCHAR
STARTCHAR colon
ENCODING 58
SWIDTH 100 0
DWIDTH 2 0
BBX 1 6 0 0
BITMAP
80
80
00
00
80
80
ENDCHAR
STARTCHAR semicolon
ENCODING 59
SWIDTH 150 0
DWIDTH 2 0
BBX 2 7 0 -1
BITMAP
40
40
00
00
40
40
80
ENDCHAR
STARTCHAR less
ENCODING 60
SWIDTH 250 0
DWIDTH 4 0
BBX 3 4 0 1
BITMAP
40
80
40
20
ENDCHAR
STARTCHAR equal
ENCODING 61
SWIDTH 350 0
DWIDTH 6 0
BBX 5 3 0 2
BITMAP
F8
00
F8
ENDCHAR
STARTCHAR greater
ENCODING 62
SWIDTH 250 0
DWIDTH 4 0
BBX 3 5 0 1
BITMAP
40
00
20
00
80
ENDCHAR
STARTCHAR question
ENCODING 63
SWIDTH 400 0
DWIDTH 6 0
BBX 6 9 0 0
BITMAP
30
48
84
08
10
20
20
20
20
ENDCHAR
STARTCHAR at
ENCODING 64
SWIDTH 550 0
DWIDTH 9 0
BBX 8 8 0 0
BITMAP
3C
42
9D
A5
A5
9A
40
38
ENDCHAR
STARTCHAR A
ENCODING 65
SWIDTH 500 0
DWIDTH 8 0
BBX 7 9 0 0
BITMAP
30
10
28
28
04
3C
04
40
C6
ENDCHAR
STARTCHAR B
ENCODING 66
SWIDTH 450 0
DWIDTH 7 0
BBX 6 9 0 0
BITMAP
F8
44
40
44
78
44
40
44
F8
ENDCHAR
STARTCHAR C
ENCODING 67
SWIDTH 450 0
DWIDTH 7 0
BBX 6 9 0 0
BITMAP
38
44
40
80
80
80
80
44
38
ENDCHAR
STARTCHAR D
ENCODING 68
SWIDTH 450 0
DWIDTH 7 0
BBX 6 9 0 0
BITMAP
F0
4C
44
40
40
40
40
4C
F0
ENDCHAR
STARTCHAR E
ENCODING 69
SWIDTH 450 0
DWIDTH 7 0
BBX 6 9 0 0
BITMAP
FC
40
40
48
78
48
40
40
FC
ENDCHAR
STARTCHAR F
ENCODING 70
SWIDTH 450 0
DWIDTH 7 0
BBX 6 9 0 0
BITMAP
FC
40
40
48
78
48
40
40
C0
ENDCHAR
STARTCHAR G
ENCODING 71
SWIDTH 450 0
DWIDTH 7 0
BBX 6 9 0 0
BITMAP
38
44
40
80
8C
80
80
44
38
ENDCHAR
STARTCHAR H
ENCODING 72
SWIDTH 500 0
DWIDTH 8 0
BBX 7 9 0 0
BITMAP
C6
40
40
40
7C
40
40
40
C6
ENDCHAR
STARTCHAR I
ENCODING 73
SWIDTH 200 0
DWIDTH 3 0
BBX 2 9 0 0
BITMAP
C0
40
40
40
40
40
40
40
C0
ENDCHAR
STARTCHAR J
ENCODING 74
SWIDTH 450 0
DWIDTH 7 0
BBX 6 9 0 0
BITMAP
0C
04
04
04
04
04
04
D8
20
ENDCHAR
STARTCHAR K
ENCODING 75
SWIDTH 450 0
DWIDTH 7 0
BBX 6 9 0 0
BITMAP
CC
44
48
60
50
48
48
44
CC
ENDCHAR
STARTCHAR L
ENCODING 76
SWIDTH 450 0
DWIDTH 7 0
BBX 6 9 0 0
BITMAP
C0
40
40
40
40
40
40
40
FC
ENDCHAR
STARTCHAR M
ENCODING 77
SWIDTH 600 0
DWIDTH 10 0
BBX 9 9 0 0
BITMAP
C180
4300
6100
4900
4900
4100
4100
4100
C380
ENDCHAR
STARTCHAR N
ENCODING 78
SWIDTH 500 0
DWIDTH 8 0
BBX 7 9 0 0
BITMAP
C6
40
40
60
50
50
48
44
C0
ENDCHAR
STARTCHAR O
ENCODING 79
SWIDTH 500 0
DWIDTH 8 0
BBX 7 9 0 0
BITMAP
38
44
40
82
82
82
82
44
38
ENDCHAR
STARTCHAR P
ENCODING 80
SWIDTH 450 0
DWIDTH 7 0
BBX 6 9 0 0
BITMAP
F8
44
40
44
78
40
40
40
C0
ENDCHAR
STARTCHAR Q
ENCODING 81
SWIDTH 500 0
DWIDTH 8 0
BBX 7 11 0 -2
BITMAP
38
44
40
82
82
82
82
44
38
04
02
ENDCHAR
STARTCHAR R
ENCODING 82
SWIDTH 450 0
DWIDTH 7 0
BBX 6 9 0 0
BITMAP
F8
44
40
44
78
50
48
44
C0
ENDCHAR
STARTCHAR S
ENCODING 83
SWIDTH 400 0
DWIDTH 6 0
BBX 6 9 0 0
BITMAP
34
4C
84
40
30
08
04
C8
B0
ENDCHAR
STARTCHAR T
ENCODING 84
SWIDTH 400 0
DWIDTH 6 0
BBX 6 9 0 0
BITMAP
FC
A4
20
20
20
20
20
20
30
ENDCHAR
STARTCHAR U
ENCODING 85
SWIDTH 550 0
DWIDTH 9 0
BBX 8 9 0 0
BITMAP
C3
42
42
42
42
42
42
24
18
ENDCHAR
STARTCHAR V
ENCODING 86
SWIDTH 500 0
DWIDTH 8 0
BBX 7 9 0 0
BITMAP
C6
40
40
04
04
28
28
10
10
ENDCHAR
STARTCHAR W
ENCODING 87
SWIDTH 700 0
DWIDTH 11 0
BBX 10 9 0 0
BITMAP
C0C0
4040
4040
0480
0480
2900
2900
1200
1200
ENDCHAR
STARTCHAR X
ENCODING 88
SWIDTH 500 0
DWIDTH 8 0
BBX 7 9 0 0
BITMAP
C6
40
04
28
10
28
04
40
C6
ENDCHAR
STARTCHAR Y
ENCODING 89
SWIDTH 500 0
DWIDTH 8 0
BBX 7 9 0 0
BITMAP
C6
40
04
28
10
10
10
10
38
ENDCHAR
STARTCHAR Z
ENCODING 90
SWIDTH 400 0
DWIDTH 6 0
BBX 6 9 0 0
BITMAP
FC
84
08
10
20
00
00
84
FC
ENDCHAR
STARTCHAR bracketleft
ENCODING 91
SWIDTH 200 0
DWIDTH 3 0
BBX 2 12 0 -2
BITMAP
C0
80
80
80
80
80
80
80
80
80
80
80
ENDCHAR
STARTCHAR backslash
ENCODING 92
SWIDTH 300 0
DWIDTH 5 0
BBX 4 12 0 -2
BITMAP
80
80
80
40
40
00
00
00
20
20
10
10
ENDCHAR
STARTCHAR bracketright
ENCODING 93
SWIDTH 200 0
DWIDTH 3 0
BBX 2 1 0 9
BITMAP
C0
ENDCHAR
STARTCHAR asciicircum
ENCODING 94
SWIDTH 300 0
DWIDTH 5 0
BBX 4 2 0 7
BITMAP
60
90
ENDCHAR
STARTCHAR underscore
ENCODING 95
SWIDTH 400 0
DWIDTH 6 0
BBX 6 1 0 -1
BITMAP
FC
ENDCHAR
STARTCHAR grave
ENCODING 96
SWIDTH 200 0
DWIDTH 3 0
BBX 2 2 0 8
BITMAP
80
40
ENDCHAR
STARTCHAR a
ENCODING 97
SWIDTH 400 0
DWIDTH 6 0
BBX 6 6 0 0
BITMAP
48
08
38
48
98
6C
ENDCHAR
STARTCHAR b
ENCODING 98
SWIDTH 450 0
DWIDTH 7 0
BBX 6 10 0 0
BITMAP
C0
40
40
40
44
40
40
40
44
F8
ENDCHAR
STARTCHAR c
ENCODING 99
SWIDTH 400 0
DWIDTH 6 0
BBX 6 6 0 0
BITMAP
4C
84
80
80
48
30
ENDCHAR
STARTCHAR d
ENCODING 100
SWIDTH 450 0
DWIDTH 7 0
BBX 6 10 0 0
BITMAP
0C
04
04
04
4C
84
84
84
4C
34
ENDCHAR
STARTCHAR e
ENCODING 101
SWIDTH 400 0
DWIDTH 6 0
BBX 6 6 0 0
BITMAP
48
84
FC
80
48
30
ENDCHAR
STARTCHAR f
ENCODING 102
SWIDTH 200 0
DWIDTH 3 0
BBX 4 10 0 0
BITMAP
30
00
40
40
40
40
40
40
40
C0
ENDCHAR
STARTCHAR g
ENCODING 103
SWIDTH 450 0
DWIDTH 7 0
BBX 6 9 0 -3
BITMAP
4C
84
84
84
4C
34
04
04
30
ENDCHAR
STARTCHAR h
ENCODING 104
SWIDTH 450 0
DWIDTH 7 0
BBX 6 10 0 0
BITMAP
C0
40
40
40
48
44
44
44
44
CC
ENDCHAR
STARTCHAR i
ENCODING 105
SWIDTH 200 0
DWIDTH 3 0
BBX 2 10 0 0
BITMAP
40
40
00
00
40
40
40
40
40
C0
ENDCHAR
STARTCHAR j
ENCODING 106
SWIDTH 150 0
DWIDTH 2 0
BBX 4 13 -2 -3
BITMAP
10
10
00
00
10
10
10
10
10
10
10
10
C0
ENDCHAR
STARTCHAR k
ENCODING 107
SWIDTH 450 0
DWIDTH 7 0
BBX 6 10 0 0
BITMAP
C0
40
40
40
48
50
60
50
44
CC
ENDCHAR
STARTCHAR l
ENCODING 108
SWIDTH 200 0
DWIDTH 3 0
BBX 2 10 0 0
BITMAP
C0
40
40
40
40
40
40
40
40
C0
ENDCHAR
STARTCHAR m
ENCODING 109
SWIDTH 700 0
DWIDTH 11 0
BBX 10 6 0 0
BITMAP
4880
4440
4440
4440
4440
CCC0
ENDCHAR
STARTCHAR n
ENCODING 110
SWIDTH 450 0
DWIDTH 7 0
BBX 6 6 0 0
BITMAP
48
44
44
44
44
CC
ENDCHAR
STARTCHAR o
ENCODING 111
SWIDTH 400 0
DWIDTH 6 0
BBX 6 6 0 0
BITMAP
48
84
84
84
48
30
ENDCHAR
STARTCHAR p
ENCODING 112
SWIDTH 450 0
DWIDTH 7 0
BBX 6 9 0 -3
BITMAP
44
40
40
40
44
78
40
40
C0
ENDCHAR
STARTCHAR q
ENCODING 113
SWIDTH 450 0
DWIDTH 7 0
BBX 6 9 0 -3
BITMAP
4C
84
84
84
4C
34
04
04
0C
ENDCHAR
STARTCHAR r
ENCODING 114
SWIDTH 400 0
DWIDTH 6 0
BBX 6 6 0 0
BITMAP
44
40
40
40
40
C0
ENDCHAR
STARTCHAR s
ENCODING 115
SWIDTH 350 0
DWIDTH 6 0
BBX 5 6 0 0
BITMAP
98
88
40
30
C8
B0
ENDCHAR
STARTCHAR t
ENCODING 116
SWIDTH 200 0
DWIDTH 3 0
BBX 2 10 1 0
BITMAP
80
80
80
80
80
80
80
80
80
40
ENDCHAR
STARTCHAR u
ENCODING 117
SWIDTH 450 0
DWIDTH 7 0
BBX 5 6 1 0
BITMAP
88
88
88
88
18
68
ENDCHAR
STARTCHAR v
ENCODING 118
SWIDTH 400 0
DWIDTH 6 0
BBX 4 6 1 0
BITMAP
90
90
20
20
40
40
ENDCHAR
STARTCHAR w
ENCODING 119
SWIDTH 500 0
DWIDTH 8 0
BBX 5 6 1 0
BITMAP
80
80
28
28
50
50
ENDCHAR
STARTCHAR x
ENCODING 120
SWIDTH 400 0
DWIDTH 6 0
BBX 6 6 0 0
BITMAP
48
10
20
20
48
DC
ENDCHAR
STARTCHAR y
ENCODING 121
SWIDTH 400 0
DWIDTH 6 0
BBX 5 9 0 -3
BITMAP
48
48
10
10
20
20
00
00
80
ENDCHAR
STARTCHAR z
ENCODING 122
SWIDTH 350 0
DWIDTH 6 0
BBX 5 6 0 0
BITMAP
88
10
20
00
88
F8
ENDCHAR
STARTCHAR braceleft
ENCODING 123
SWIDTH 300 0
DWIDTH 5 0
BBX 4 7 0 3
BITMAP
30
00
00
00
00
00
C0
ENDCHAR
STARTCHAR bar
ENCODING 124
SWIDTH 100 0
DWIDTH 2 0
BBX 1 12 0 -2
BITMAP
80
80
80
80
80
80
80
80
80
80
80
80
ENDCHAR
STARTCHAR braceright
ENCODING 125
SWIDTH 300 0
DWIDTH 5 0
BBX 4 7 0 3
BITMAP
C0
00
00
00
00
00
30
ENDCHAR
STARTCHAR asciitilde
ENCODING 126
SWIDTH 350 0
DWIDTH 6 0
BBX 5 2 0 8
BITMAP
48
B0
ENDCHAR
STARTCHAR nonbreakingspace
ENCODING 160
SWIDTH 250 0
DWIDTH 4 0
BBX 1 1 0 0
BITMAP
00
ENDCHAR
STARTCHAR exclamdown
ENCODING 161
SWIDTH 100 0
DWIDTH 2 0
BBX 1 8 0 -2
BITMAP
80
00
80
80
80
80
80
80
ENDCHAR
STARTCHAR cent
ENCODING 162
SWIDTH 400 0
DWIDTH 6 0
BBX 6 10 0 -2
BITMAP
20
20
6C
A4
A0
A0
68
30
20
20
ENDCHAR
STARTCHAR sterling
ENCODING 163
SWIDTH 400 0
DWIDTH 6 0
BBX 6 9 0 0
BITMAP
30
08
00
70
00
00
00
44
FC
ENDCHAR
STARTCHAR currency
ENCODING 164
SWIDTH 350 0
DWIDTH 6 0
BBX 5 4 0 2
BITMAP
50
88
88
50
ENDCHAR
STARTCHAR yen
ENCODING 165
SWIDTH 500 0
DWIDTH 8 0
BBX 7 9 0 0
BITMAP
C6
40
04
28
3C
10
3C
10
38
ENDCHAR
STARTCHAR brokenbar
ENCODING 166
SWIDTH 100 0
DWIDTH 2 0
BBX 1 12 0 -2
BITMAP
80
80
80
80
80
00
00
00
80
80
80
80
ENDCHAR
STARTCHAR section
ENCODING 167
SWIDTH 350 0
DWIDTH 6 0
BBX 5 10 0 -1
BITMAP
20
50
40
50
88
88
50
10
50
20
ENDCHAR
STARTCHAR dieresis
ENCODING 168
SWIDTH 350 0
DWIDTH 6 0
BBX 5 1 0 9
BITMAP
D8
ENDCHAR
STARTCHAR copyright
ENCODING 169
SWIDTH 600 0
DWIDTH 10 0
BBX 9 9 0 0
BITMAP
1C00
2200
4100
A080
A080
A080
5D00
2200
1C00
ENDCHAR
STARTCHAR ordfeminine
ENCODING 170
SWIDTH 350 0
DWIDTH 6 0
BBX 4 6 1 3
BITMAP
C0
20
E0
F0
00
E0
ENDCHAR
STARTCHAR guillemotleft
ENCODING 171
SWIDTH 400 0
DWIDTH 6 0
BBX 6 5 0 1
BITMAP
08
50
A0
50
24
ENDCHAR
STARTCHAR logicalnot
ENCODING 172
SWIDTH 400 0
DWIDTH 6 0
BBX 6 3 0 2
BITMAP
FC
04
04
ENDCHAR
STARTCHAR hyphen
ENCODING 173
SWIDTH 350 0
DWIDTH 6 0
BBX 5 1 0 3
BITMAP
F8
ENDCHAR
STARTCHAR registered
ENCODING 174
SWIDTH 600 0
DWIDTH 10 0
BBX 9 9 0 0
BITMAP
1C00
2200
4100
A080
BC80
A480
6100
2200
1C00
ENDCHAR
STARTCHAR macron
ENCODING 175
SWIDTH 300 0
DWIDTH 5 0
BBX 4 1 0 9
BITMAP
F0
ENDCHAR
STARTCHAR degree
ENCODING 176
SWIDTH 300 0
DWIDTH 5 0
BBX 4 4 0 5
BITMAP
60
90
90
60
ENDCHAR
STARTCHAR plusminus
ENCODING 177
SWIDTH 400 0
DWIDTH 6 0
BBX 6 7 0 0
BITMAP
20
20
FC
20
20
00
FC
ENDCHAR
STARTCHAR twosuperior
ENCODING 178
SWIDTH 300 0
DWIDTH 5 0
BBX 4 5 0 5
BITMAP
60
90
20
00
F0
ENDCHAR
STARTCHAR threesuperior
ENCODING 179
SWIDTH 300 0
DWIDTH 5 0
BBX 4 5 0 5
BITMAP
60
90
20
10
60
ENDCHAR
STARTCHAR acute
ENCODING 180
SWIDTH 200 0
DWIDTH 3 0
BBX 2 2 0 7
BITMAP
40
80
ENDCHAR
STARTCHAR mu
ENCODING 181
SWIDTH 450 0
DWIDTH 7 0
BBX 5 9 1 -3
BITMAP
88
88
88
88
98
E8
80
80
80
ENDCHAR
STARTCHAR paragraph
ENCODING 182
SWIDTH 500 0
DWIDTH 8 0
BBX 7 10 0 -1
BITMAP
3E
78
F8
F8
78
38
08
08
08
08
ENDCHAR
STARTCHAR periodcentered
ENCODING 183
SWIDTH 100 0
DWIDTH 2 0
BBX 1 2 0 4
BITMAP
80
80
ENDCHAR
STARTCHAR cedilla
ENCODING 184
SWIDTH 300 0
DWIDTH 5 0
BBX 1 1 2 -2
BITMAP
80
ENDCHAR
STARTCHAR onesuperior
ENCODING 185
SWIDTH 300 0
DWIDTH 5 0
BBX 2 4 1 5
BITMAP
80
00
00
C0
ENDCHAR
STARTCHAR ordmasculine
ENCODING 186
SWIDTH 300 0
DWIDTH 5 0
BBX 4 6 0 3
BITMAP
60
90
90
60
00
60
ENDCHAR
STARTCHAR guillemotright
ENCODING 187
SWIDTH 400 0
DWIDTH 6 0
BBX 6 5 0 1
BITMAP
50
08
24
08
A0
ENDCHAR
STARTCHAR onequarter
ENCODING 188
SWIDTH 500 0
DWIDTH 8 0
BBX 7 8 0 1
BITMAP
44
C4
48
D0
10
10
24
0E
ENDCHAR
STARTCHAR onehalf
ENCODING 189
SWIDTH 500 0
DWIDTH 8 0
BBX 7 9 0 0
BITMAP
44
C4
48
D0
10
14
2A
04
0E
ENDCHAR
STARTCHAR threequarters
ENCODING 190
SWIDTH 500 0
DWIDTH 8 0
BBX 7 8 0 1
BITMAP
44
A4
08
50
10
10
24
0E
ENDCHAR
STARTCHAR questiondown
ENCODING 191
SWIDTH 400 0
DWIDTH 6 0
BBX 6 8 0 -2
BITMAP
20
00
20
20
40
80
84
48
ENDCHAR
STARTCHAR Agrave
ENCODING 192
SWIDTH 500 0
DWIDTH 8 0
BBX 7 11 0 0
BITMAP
20
00
30
10
28
28
04
3C
04
40
C6
ENDCHAR
STARTCHAR Aacute
ENCODING 193
SWIDTH 500 0
DWIDTH 8 0
BBX 7 11 0 0
BITMAP
08
00
30
10
28
28
04
3C
04
40
C6
ENDCHAR
STARTCHAR Acircumflex
ENCODING 194
SWIDTH 500 0
DWIDTH 8 0
BBX 7 11 0 0
BITMAP
10
00
30
10
28
28
04
3C
04
40
C6
ENDCHAR
STARTCHAR Atilde
ENCODING 195
SWIDTH 500 0
DWIDTH 8 0
BBX 7 11 0 0
BITMAP
34
00
30
10
28
28
04
3C
04
40
C6
ENDCHAR
STARTCHAR Adieresis
ENCODING 196
SWIDTH 500 0
DWIDTH 8 0
BBX 7 9 0 0
BITMAP
30
10
28
28
04
3C
04
40
C6
ENDCHAR
STARTCHAR Aring
ENCODING 197
SWIDTH 500 0
DWIDTH 8 0
BBX 7 11 0 0
BITMAP
38
38
10
10
28
28
04
3C
04
40
C6
ENDCHAR
STARTCHAR AE
ENCODING 198
SWIDTH 700 0
DWIDTH 11 0
BBX 10 9 0 0
BITMAP
1FC0
0C00
1400
2480
3F80
0480
0400
4400
CFC0
ENDCHAR
STARTCHAR Ccedilla
ENCODING 199
SWIDTH 450 0
DWIDTH 7 0
BBX 6 12 0 -3
BITMAP
38
44
40
80
80
80
80
44
38
10
08
10
ENDCHAR
STARTCHAR Egrave
ENCODING 200
SWIDTH 450 0
DWIDTH 7 0
BBX 6 11 0 0
BITMAP
20
00
FC
40
40
48
78
48
40
40
FC
ENDCHAR
STARTCHAR Eacute
ENCODING 201
SWIDTH 450 0
DWIDTH 7 0
BBX 6 11 0 0
BITMAP
10
00
FC
40
40
48
78
48
40
40
FC
ENDCHAR
STARTCHAR Ecircumflex
ENCODING 202
SWIDTH 450 0
DWIDTH 7 0
BBX 6 11 0 0
BITMAP
30
00
FC
40
40
48
78
48
40
40
FC
ENDCHAR
STARTCHAR Edieresis
ENCODING 203
SWIDTH 450 0
DWIDTH 7 0
BBX 6 9 0 0
BITMAP
FC
40
40
48
78
48
40
40
FC
ENDCHAR
STARTCHAR Igrave
ENCODING 204
SWIDTH 200 0
DWIDTH 3 0
BBX 2 11 0 0
BITMAP
80
00
C0
40
40
40
40
40
40
40
C0
ENDCHAR
STARTCHAR Iacute
ENCODING 205
SWIDTH 200 0
DWIDTH 3 0
BBX 2 9 0 0
BITMAP
C0
40
40
40
40
40
40
40
C0
ENDCHAR
STARTCHAR Icircumflex
ENCODING 206
SWIDTH 200 0
DWIDTH 3 0
BBX 2 11 0 0
BITMAP
40
00
C0
40
40
40
40
40
40
40
C0
ENDCHAR
STARTCHAR Idieresis
ENCODING 207
SWIDTH 200 0
DWIDTH 3 0
BBX 2 9 0 0
BITMAP
C0
40
40
40
40
40
40
40
C0
ENDCHAR
STARTCHAR Eth
ENCODING 208
SWIDTH 450 0
DWIDTH 7 0
BBX 6 9 0 0
BITMAP
F0
4C
44
40
C0
40
40
4C
F0
ENDCHAR
STARTCHAR Ntilde
ENCODING 209
SWIDTH 500 0
DWIDTH 8 0
BBX 7 11 0 0
BITMAP
30
00
C6
40
40
60
50
50
48
44
C0
ENDCHAR
STARTCHAR Ograve
ENCODING 210
SWIDTH 500 0
DWIDTH 8 0
BBX 7 11 0 0
BITMAP
20
00
38
44
40
82
82
82
82
44
38
ENDCHAR
STARTCHAR Oacute
ENCODING 211
SWIDTH 500 0
DWIDTH 8 0
BBX 7 11 0 0
BITMAP
08
00
38
44
40
82
82
82
82
44
38
ENDCHAR
STARTCHAR Ocircumflex
ENCODING 212
SWIDTH 500 0
DWIDTH 8 0
BBX 7 11 0 0
BITMAP
10
00
38
44
40
82
82
82
82
44
38
ENDCHAR
STARTCHAR Otilde
ENCODING 213
SWIDTH 500 0
DWIDTH 8 0
BBX 7 11 0 0
BITMAP
34
00
38
44
40
82
82
82
82
44
38
ENDCHAR
STARTCHAR Odieresis
ENCODING 214
SWIDTH 500 0
DWIDTH 8 0
BBX 7 9 0 0
BITMAP
38
44
40
82
82
82
82
44
38
ENDCHAR
STARTCHAR multiply
ENCODING 215
SWIDTH 400 0
DWIDTH 6 0
BBX 6 5 0 1
BITMAP
48
10
20
10
84
ENDCHAR
STARTCHAR Oslash
ENCODING 216
SWIDTH 500 0
DWIDTH 8 0
BBX 7 9 0 0
BITMAP
3A
44
40
8A
92
A2
82
44
B8
ENDCHAR
STARTCHAR Ugrave
ENCODING 217
SWIDTH 550 0
DWIDTH 9 0
BBX 8 11 0 0
BITMAP
10
00
C3
42
42
42
42
42
42
24
18
ENDCHAR
STARTCHAR Uacute
ENCODING 218
SWIDTH 550 0
DWIDTH 9 0
BBX 8 11 0 0
BITMAP
08
00
C3
42
42
42
42
42
42
24
18
ENDCHAR
STARTCHAR Ucircumflex
ENCODING 219
SWIDTH 550 0
DWIDTH 9 0
BBX 8 11 0 0
BITMAP
18
00
C3
42
42
42
42
42
42
24
18
ENDCHAR
STARTCHAR Udieresis
ENCODING 220
SWIDTH 550 0
DWIDTH 9 0
BBX 8 9 0 0
BITMAP
C3
42
42
42
42
42
42
24
18
ENDCHAR
STARTCHAR Yacute
ENCODING 221
SWIDTH 500 0
DWIDTH 8 0
BBX 7 11 0 0
BITMAP
08
00
C6
40
04
28
10
10
10
10
38
ENDCHAR
STARTCHAR Thorn
ENCODING 222
SWIDTH 450 0
DWIDTH 7 0
BBX 6 9 0 0
BITMAP
C0
40
78
40
40
40
44
40
C0
ENDCHAR
STARTCHAR germandbls
ENCODING 223
SWIDTH 450 0
DWIDTH 7 0
BBX 6 9 0 0
BITMAP
38
04
40
44
58
44
40
44
D8
ENDCHAR
STARTCHAR agrave
ENCODING 224
SWIDTH 400 0
DWIDTH 6 0
BBX 6 8 0 0
BITMAP
20
00
48
08
38
48
98
6C
ENDCHAR
STARTCHAR aacute
ENCODING 225
SWIDTH 400 0
DWIDTH 6 0
BBX 6 9 0 0
BITMAP
10
20
00
48
08
38
48
98
6C
ENDCHAR
STARTCHAR acircumflex
ENCODING 226
SWIDTH 400 0
DWIDTH 6 0
BBX 6 9 0 0
BITMAP
20
10
00
48
08
38
48
98
6C
ENDCHAR
STARTCHAR atilde
ENCODING 227
SWIDTH 400 0
DWIDTH 6 0
BBX 6 9 0 0
BITMAP
28
70
00
48
08
38
48
98
6C
ENDCHAR
STARTCHAR adieresis
ENCODING 228
SWIDTH 400 0
DWIDTH 6 0
BBX 6 8 0 0
BITMAP
58
00
48
08
38
48
98
6C
ENDCHAR
STARTCHAR aring
ENCODING 229
SWIDTH 400 0
DWIDTH 6 0
BBX 6 10 0 0
BITMAP
30
48
30
00
48
08
38
48
98
6C
ENDCHAR
STARTCHAR ae
ENCODING 230
SWIDTH 650 0
DWIDTH 10 0
BBX 10 6 0 0
BITMAP
4C80
0840
3FC0
4800
9480
6300
ENDCHAR
STARTCHAR ccedilla
ENCODING 231
SWIDTH 400 0
DWIDTH 6 0
BBX 6 9 0 -3
BITMAP
4C
84
80
80
48
30
20
10
20
ENDCHAR
STARTCHAR egrave
ENCODING 232
SWIDTH 400 0
DWIDTH 6 0
BBX 6 8 0 0
BITMAP
20
00
48
84
FC
80
48
30
ENDCHAR
STARTCHAR eacute
ENCODING 233
SWIDTH 400 0
DWIDTH 6 0
BBX 6 9 0 0
BITMAP
10
20
00
48
84
FC
80
48
30
ENDCHAR
STARTCHAR ecircumflex
ENCODING 234
SWIDTH 400 0
DWIDTH 6 0
BBX 6 9 0 0
BITMAP
20
10
00
48
84
FC
80
48
30
ENDCHAR
STARTCHAR edieresis
ENCODING 235
SWIDTH 400 0
DWIDTH 6 0
BBX 6 8 0 0
BITMAP
58
00
48
84
FC
80
48
30
ENDCHAR
STARTCHAR igrave
ENCODING 236
SWIDTH 200 0
DWIDTH 3 0
BBX 2 10 0 0
BITMAP
80
40
00
00
40
40
40
40
40
C0
ENDCHAR
STARTCHAR iacute
ENCODING 237
SWIDTH 200 0
DWIDTH 3 0
BBX 2 9 0 0
BITMAP
40
00
00
40
40
40
40
40
C0
ENDCHAR
STARTCHAR icircumflex
ENCODING 238
SWIDTH 200 0
DWIDTH 3 0
BBX 2 10 0 0
BITMAP
40
80
00
00
40
40
40
40
40
C0
ENDCHAR
STARTCHAR idieresis
ENCODING 239
SWIDTH 200 0
DWIDTH 3 0
BBX 4 9 -1 0
BITMAP
D0
00
00
20
20
20
20
20
60
ENDCHAR
STARTCHAR eth
ENCODING 240
SWIDTH 400 0
DWIDTH 6 0
BBX 6 10 0 0
BITMAP
64
18
28
04
4C
84
84
84
48
30
ENDCHAR
STARTCHAR ntilde
ENCODING 241
SWIDTH 450 0
DWIDTH 7 0
BBX 6 9 0 0
BITMAP
24
58
00
48
44
44
44
44
CC
ENDCHAR
STARTCHAR ograve
ENCODING 242
SWIDTH 400 0
DWIDTH 6 0
BBX 6 8 0 0
BITMAP
20
00
48
84
84
84
48
30
ENDCHAR
STARTCHAR oacute
ENCODING 243
SWIDTH 400 0
DWIDTH 6 0
BBX 6 9 0 0
BITMAP
10
20
00
48
84
84
84
48
30
ENDCHAR
STARTCHAR ocircumflex
ENCODING 244
SWIDTH 400 0
DWIDTH 6 0
BBX 6 9 0 0
BITMAP
20
10
00
48
84
84
84
48
30
ENDCHAR
STARTCHAR otilde
ENCODING 245
SWIDTH 400 0
DWIDTH 6 0
BBX 6 9 0 0
BITMAP
28
70
00
48
84
84
84
48
30
ENDCHAR
STARTCHAR odieresis
ENCODING 246
SWIDTH 400 0
DWIDTH 6 0
BBX 6 8 0 0
BITMAP
58
00
48
84
84
84
48
30
ENDCHAR
STARTCHAR divide
ENCODING 247
SWIDTH 400 0
DWIDTH 6 0
BBX 6 5 0 1
BITMAP
20
00
FC
00
20
ENDCHAR
STARTCHAR oslash
ENCODING 248
SWIDTH 400 0
DWIDTH 6 0
BBX 6 6 0 0
BITMAP
48
94
A4
A4
48
B0
ENDCHAR
STARTCHAR ugrave
ENCODING 249
SWIDTH 450 0
DWIDTH 7 0
BBX 5 8 1 0
BITMAP
40
00
88
88
88
88
18
68
ENDCHAR
STARTCHAR uacute
ENCODING 250
SWIDTH 450 0
DWIDTH 7 0
BBX 5 9 1 0
BITMAP
20
40
00
88
88
88
88
18
68
ENDCHAR
STARTCHAR ucircumflex
ENCODING 251
SWIDTH 450 0
DWIDTH 7 0
BBX 5 9 1 0
BITMAP
40
20
00
88
88
88
88
18
68
ENDCHAR
STARTCHAR udieresis
ENCODING 252
SWIDTH 450 0
DWIDTH 7 0
BBX 5 8 1 0
BITMAP
B0
00
88
88
88
88
18
68
ENDCHAR
STARTCHAR yacute
ENCODING 253
SWIDTH 400 0
DWIDTH 6 0
BBX 5 12 0 -3
BITMAP
10
20
00
48
48
10
10
20
20
00
00
80
ENDCHAR
STARTCHAR thorn
ENCODING 254
SWIDTH 450 0
DWIDTH 7 0
BBX 6 13 0 -3
BITMAP
C0
40
40
40
44
40
40
40
44
78
40
40
C0
ENDCHAR
STARTCHAR ydieresis
ENCODING 255
SWIDTH 400 0
DWIDTH 6 0
BBX 5 11 0 -3
BITMAP
58
00
48
48
10
10
20
20
00
00
80
ENDCHAR
STARTCHAR Amacron
ENCODING 256
SWIDTH 500 0
DWIDTH 8 0
BBX 7 9 0 0
BITMAP
30
10
28
28
04
3C
04
40
C6
ENDCHAR
STARTCHAR amacron
ENCODING 257
SWIDTH 400 0
DWIDTH 6 0
BBX 6 8 0 0
BITMAP
78
00
48
08
38
48
98
6C
ENDCHAR
STARTCHAR Abreve
ENCODING 258
SWIDTH 500 0
DWIDTH 8 0
BBX 7 11 0 0
BITMAP
04
00
30
10
28
28
04
3C
04
40
C6
ENDCHAR
STARTCHAR abreve
ENCODING 259
SWIDTH 400 0
DWIDTH 6 0
BBX 6 9 0 0
BITMAP
48
30
00
48
08
38
48
98
6C
ENDCHAR
STARTCHAR Aogonek
ENCODING 260
SWIDTH 500 0
DWIDTH 8 0
BBX 7 12 0 -3
BITMAP
30
10
28
28
04
3C
04
40
C6
10
20
10
ENDCHAR
STARTCHAR aogonek
ENCODING 261
SWIDTH 400 0
DWIDTH 6 0
BBX 6 8 0 -2
BITMAP
48
08
38
48
98
6C
00
40
ENDCHAR
STARTCHAR Cacute
ENCODING 262
SWIDTH 450 0
DWIDTH 7 0
BBX 6 11 0 0
BITMAP
08
00
38
44
40
80
80
80
80
44
38
ENDCHAR
STARTCHAR cacute
ENCODING 263
SWIDTH 400 0
DWIDTH 6 0
BBX 6 9 0 0
BITMAP
10
20
00
4C
84
80
80
48
30
ENDCHAR
STARTCHAR Ccircumflex
ENCODING 264
SWIDTH 450 0
DWIDTH 7 0
BBX 6 11 0 0
BITMAP
10
00
38
44
40
80
80
80
80
44
38
ENDCHAR
STARTCHAR ccircumflex
ENCODING 265
SWIDTH 400 0
DWIDTH 6 0
BBX 6 9 0 0
BITMAP
20
10
00
4C
84
80
80
48
30
ENDCHAR
STARTCHAR Cdotaccent
ENCODING 266
SWIDTH 450 0
DWIDTH 7 0
BBX 6 9 0 0
BITMAP
38
44
40
80
80
80
80
44
38
ENDCHAR
STARTCHAR cdotaccent
ENCODING 267
SWIDTH 400 0
DWIDTH 6 0
BBX 6 8 0 0
BITMAP
20
00
4C
84
80
80
48
30
ENDCHAR
STARTCHAR Ccaron
ENCODING 268
SWIDTH 450 0
DWIDTH 7 0
BBX 6 11 0 0
BITMAP
28
00
38
44
40
80
80
80
80
44
38
ENDCHAR
STARTCHAR ccaron
ENCODING 269
SWIDTH 400 0
DWIDTH 6 0
BBX 6 9 0 0
BITMAP
10
20
00
4C
84
80
80
48
30
ENDCHAR
STARTCHAR Dcaron
ENCODING 270
SWIDTH 450 0
DWIDTH 7 0
BBX 6 11 0 0
BITMAP
10
00
F0
4C
44
40
40
40
40
4C
F0
ENDCHAR
STARTCHAR dcaron
ENCODING 271
SWIDTH 450 0
DWIDTH 7 0
BBX 8 10 0 0
BITMAP
0F
07
05
06
4C
84
84
84
4C
34
ENDCHAR
STARTCHAR Dcroat
ENCODING 272
SWIDTH 450 0
DWIDTH 7 0
BBX 6 9 0 0
BITMAP
F0
4C
44
40
C0
40
40
4C
F0
ENDCHAR
STARTCHAR dcroat
ENCODING 273
SWIDTH 450 0
DWIDTH 7 0
BBX 6 10 0 0
BITMAP
0C
04
0C
04
4C
84
84
84
4C
34
ENDCHAR
STARTCHAR Emacron
ENCODING 274
SWIDTH 450 0
DWIDTH 7 0
BBX 6 9 0 0
BITMAP
FC
40
40
48
78
48
40
40
FC
ENDCHAR
STARTCHAR emacron
ENCODING 275
SWIDTH 400 0
DWIDTH 6 0
BBX 6 8 0 0
BITMAP
78
00
48
84
FC
80
48
30
ENDCHAR
STARTCHAR Ebreve
ENCODING 276
SWIDTH 450 0
DWIDTH 7 0
BBX 6 11 0 0
BITMAP
44
00
FC
40
40
48
78
48
40
40
FC
ENDCHAR
STARTCHAR ebreve
ENCODING 277
SWIDTH 400 0
DWIDTH 6 0
BBX 6 9 0 0
BITMAP
48
30
00
48
84
FC
80
48
30
ENDCHAR
STARTCHAR Edotaccent
ENCODING 278
SWIDTH 450 0
DWIDTH 7 0
BBX 6 9 0 0
BITMAP
FC
40
40
48
78
48
40
40
FC
ENDCHAR
STARTCHAR edotaccent
ENCODING 279
SWIDTH 400 0
DWIDTH 6 0
BBX 6 8 0 0
BITMAP
20
00
48
84
FC
80
48
30
ENDCHAR
STARTCHAR Eogonek
ENCODING 280
SWIDTH 450 0
DWIDTH 7 0
BBX 6 12 0 -3
BITMAP
FC
40
40
48
78
48
40
40
FC
10
20
10
ENDCHAR
STARTCHAR eogonek
ENCODING 281
SWIDTH 400 0
DWIDTH 6 0
BBX 6 9 0 -3
BITMAP
48
84
FC
80
48
30
20
00
20
ENDCHAR
STARTCHAR Ecaron
ENCODING 282
SWIDTH 450 0
DWIDTH 7 0
BBX 6 11 0 0
BITMAP
08
00
FC
40
40
48
78
48
40
40
FC
ENDCHAR
STARTCHAR ecaron
ENCODING 283
SWIDTH 400 0
DWIDTH 6 0
BBX 6 9 0 0
BITMAP
10
20
00
48
84
FC
80
48
30
ENDCHAR
STARTCHAR Gcircumflex
ENCODING 284
SWIDTH 450 0
DWIDTH 7 0
BBX 6 11 0 0
BITMAP
10
00
38
44
40
80
8C
80
80
44
38
ENDCHAR
STARTCHAR gcircumflex
ENCODING 285
SWIDTH 450 0
DWIDTH 7 0
BBX 6 12 0 -3
BITMAP
20
10
00
4C
84
84
84
4C
34
04
04
30
ENDCHAR
STARTCHAR Gbreve
ENCODING 286
SWIDTH 450 0
DWIDTH 7 0
BBX 6 11 0 0
BITMAP
04
00
38
44
40
80
8C
80
80
44
38
ENDCHAR
STARTCHAR gbreve
ENCODING 287
SWIDTH 450 0
DWIDTH 7 0
BBX 6 12 0 -3
BITMAP
48
30
00
4C
84
84
84
4C
34
04
04
30
ENDCHAR
STARTCHAR Gdotaccent
ENCODING 288
SWIDTH 450 0
DWIDTH 7 0
BBX 6 9 0 0
BITMAP
38
44
40
80
8C
80
80
44
38
ENDCHAR
STARTCHAR gdotaccent
ENCODING 289
SWIDTH 450 0
DWIDTH 7 0
BBX 6 11 0 -3
BITMAP
20
00
4C
84
84
84
4C
34
04
04
30
ENDCHAR
STARTCHAR Gcommaaccent
ENCODING 290
SWIDTH 450 0
DWIDTH 7 0
BBX 6 12 0 -3
BITMAP
38
44
40
80
8C
80
80
44
38
00
10
20
ENDCHAR
STARTCHAR gcommaaccent
ENCODING 291
SWIDTH 450 0
DWIDTH 7 0
BBX 6 13 0 -3
BITMAP
10
20
20
00
4C
84
84
84
4C
34
04
04
30
ENDCHAR
STARTCHAR Hcircumflex
ENCODING 292
SWIDTH 500 0
DWIDTH 8 0
BBX 7 11 0 0
BITMAP
28
00
C6
40
40
40
7C
40
40
40
C6
ENDCHAR
STARTCHAR hcircumflex
ENCODING 293
SWIDTH 450 0
DWIDTH 7 0
BBX 6 11 0 0
BITMAP
10
C0
40
40
40
48
44
44
44
44
CC
ENDCHAR
STARTCHAR Hbar
ENCODING 294
SWIDTH 500 0
DWIDTH 8 0
BBX 7 9 0 0
BITMAP
C6
40
FE
40
7C
40
40
40
C6
ENDCHAR
STARTCHAR hbar
ENCODING 295
SWIDTH 450 0
DWIDTH 7 0
BBX 6 10 0 0
BITMAP
C0
40
C0
40
48
44
44
44
44
CC
ENDCHAR
STARTCHAR Itilde
ENCODING 296
SWIDTH 200 0
DWIDTH 3 0
BBX 3 11 0 0
BITMAP
E0
00
C0
40
40
40
40
40
40
40
C0
ENDCHAR
STARTCHAR itilde
ENCODING 297
SWIDTH 200 0
DWIDTH 3 0
BBX 4 10 -1 0
BITMAP
70
A0
00
00
20
20
20
20
20
60
ENDCHAR
STARTCHAR Imacron
ENCODING 298
SWIDTH 200 0
DWIDTH 3 0
BBX 2 9 0 0
BITMAP
C0
40
40
40
40
40
40
40
C0
ENDCHAR
STARTCHAR imacron
ENCODING 299
SWIDTH 200 0
DWIDTH 3 0
BBX 4 9 -1 0
BITMAP
F0
00
00
20
20
20
20
20
60
ENDCHAR
STARTCHAR Ibreve
ENCODING 300
SWIDTH 200 0
DWIDTH 3 0
BBX 4 11 -1 0
BITMAP
90
00
60
20
20
20
20
20
20
20
60
ENDCHAR
STARTCHAR ibreve
ENCODING 301
SWIDTH 200 0
DWIDTH 3 0
BBX 4 10 -1 0
BITMAP
90
60
00
00
20
20
20
20
20
60
ENDCHAR
STARTCHAR Iogonek
ENCODING 302
SWIDTH 200 0
DWIDTH 3 0
BBX 2 12 0 -3
BITMAP
C0
40
40
40
40
40
40
40
C0
40
80
40
ENDCHAR
STARTCHAR iogonek
ENCODING 303
SWIDTH 200 0
DWIDTH 3 0
BBX 2 13 0 -3
BITMAP
40
40
00
00
40
40
40
40
40
C0
40
80
40
ENDCHAR
STARTCHAR Idotaccent
ENCODING 304
SWIDTH 200 0
DWIDTH 3 0
BBX 2 9 0 0
BITMAP
C0
40
40
40
40
40
40
40
C0
ENDCHAR
STARTCHAR dotlessi
ENCODING 305
SWIDTH 200 0
DWIDTH 3 0
BBX 2 6 0 0
BITMAP
40
40
40
40
40
C0
ENDCHAR
STARTCHAR IJ
ENCODING 306
SWIDTH 500 0
DWIDTH 8 0
BBX 7 9 0 0
BITMAP
C6
40
40
40
40
40
40
44
D8
ENDCHAR
STARTCHAR ij
ENCODING 307
SWIDTH 350 0
DWIDTH 6 0
BBX 5 13 0 -3
BITMAP
48
48
00
00
48
48
48
48
48
C8
08
08
20
ENDCHAR
STARTCHAR Jcircumflex
ENCODING 308
SWIDTH 450 0
DWIDTH 7 0
BBX 6 11 0 0
BITMAP
04
00
0C
04
04
04
04
04
04
D8
20
ENDCHAR
STARTCHAR jcircumflex
ENCODING 309
SWIDTH 150 0
DWIDTH 2 0
BBX 4 13 -2 -3
BITMAP
10
20
00
00
10
10
10
10
10
10
10
10
C0
ENDCHAR
STARTCHAR Kcommaaccent
ENCODING 310
SWIDTH 450 0
DWIDTH 7 0
BBX 6 11 0 -2
BITMAP
CC
44
48
60
50
48
48
44
CC
00
20
ENDCHAR
STARTCHAR kcommaaccent
ENCODING 311
SWIDTH 450 0
DWIDTH 7 0
BBX 6 12 0 -2
BITMAP
C0
40
40
40
48
50
60
50
44
CC
00
20
ENDCHAR
STARTCHAR kgreenlandic
ENCODING 312
SWIDTH 450 0
DWIDTH 7 0
BBX 6 6 0 0
BITMAP
48
50
60
50
44
CC
ENDCHAR
STARTCHAR Lacute
ENCODING 313
SWIDTH 450 0
DWIDTH 7 0
BBX 6 9 0 0
BITMAP
C0
40
40
40
40
40
40
40
FC
ENDCHAR
STARTCHAR lacute
ENCODING 314
SWIDTH 200 0
DWIDTH 3 0
BBX 2 11 0 0
BITMAP
40
C0
40
40
40
40
40
40
40
40
C0
ENDCHAR
STARTCHAR Lcommaaccent
ENCODING 315
SWIDTH 450 0
DWIDTH 7 0
BBX 6 11 0 -2
BITMAP
C0
40
40
40
40
40
40
40
FC
00
20
ENDCHAR
STARTCHAR lcommaaccent
ENCODING 316
SWIDTH 200 0
DWIDTH 3 0
BBX 2 13 0 -3
BITMAP
C0
40
40
40
40
40
40
40
40
C0
00
40
80
ENDCHAR
STARTCHAR Lcaron
ENCODING 317
SWIDTH 450 0
DWIDTH 7 0
BBX 6 11 0 0
BITMAP
80
00
C0
40
40
40
40
40
40
40
FC
ENDCHAR
STARTCHAR lcaron
ENCODING 318
SWIDTH 200 0
DWIDTH 3 0
BBX 4 10 0 0
BITMAP
F0
70
50
60
40
40
40
40
40
C0
ENDCHAR
STARTCHAR Ldot
ENCODING 319
SWIDTH 450 0
DWIDTH 7 0
BBX 6 9 0 0
BITMAP
C0
40
40
40
70
40
40
40
FC
ENDCHAR
STARTCHAR ldot
ENCODING 320
SWIDTH 200 0
DWIDTH 3 0
BBX 4 10 0 0
BITMAP
C0
40
40
40
40
70
40
40
40
C0
ENDCHAR
STARTCHAR Lslash
ENCODING 321
SWIDTH 450 0
DWIDTH 7 0
BBX 6 9 0 0
BITMAP
C0
40
40
40
C0
40
40
40
FC
ENDCHAR
STARTCHAR lslash
ENCODING 322
SWIDTH 200 0
DWIDTH 3 0
BBX 2 10 0 0
BITMAP
C0
40
40
40
40
C0
40
40
40
C0
ENDCHAR
STARTCHAR Nacute
ENCODING 323
SWIDTH 500 0
DWIDTH 8 0
BBX 7 11 0 0
BITMAP
08
00
C6
40
40
60
50
50
48
44
C0
ENDCHAR
STARTCHAR nacute
ENCODING 324
SWIDTH 450 0
DWIDTH 7 0
BBX 6 9 0 0
BITMAP
10
20
00
48
44
44
44
44
CC
ENDCHAR
STARTCHAR Ncommaaccent
ENCODING 325
SWIDTH 500 0
DWIDTH 8 0
BBX 7 12 0 -3
BITMAP
C6
40
40
60
50
50
48
44
C0
00
10
20
ENDCHAR
STARTCHAR ncommaaccent
ENCODING 326
SWIDTH 450 0
DWIDTH 7 0
BBX 6 9 0 -3
BITMAP
48
44
44
44
44
CC
00
10
20
ENDCHAR
STARTCHAR Ncaron
ENCODING 327
SWIDTH 500 0
DWIDTH 8 0
BBX 7 11 0 0
BITMAP
28
00
C6
40
40
60
50
50
48
44
C0
ENDCHAR
STARTCHAR ncaron
ENCODING 328
SWIDTH 450 0
DWIDTH 7 0
BBX 6 9 0 0
BITMAP
08
30
00
48
44
44
44
44
CC
ENDCHAR
STARTCHAR napostrophe
ENCODING 329
SWIDTH 450 0
DWIDTH 7 0
BBX 8 10 -2 0
BITMAP
C0
40
80
00
12
11
11
11
11
33
ENDCHAR
STARTCHAR Eng
ENCODING 330
SWIDTH 500 0
DWIDTH 8 0
BBX 7 12 0 -3
BITMAP
C6
40
40
60
50
50
48
44
C0
00
00
38
ENDCHAR
STARTCHAR eng
ENCODING 331
SWIDTH 450 0
DWIDTH 7 0
BBX 6 9 0 -3
BITMAP
48
44
44
44
44
C4
04
04
30
ENDCHAR
STARTCHAR Omacron
ENCODING 332
SWIDTH 500 0
DWIDTH 8 0
BBX 7 9 0 0
BITMAP
38
44
40
82
82
82
82
44
38
ENDCHAR
STARTCHAR omacron
ENCODING 333
SWIDTH 400 0
DWIDTH 6 0
BBX 6 8 0 0
BITMAP
78
00
48
84
84
84
48
30
ENDCHAR
STARTCHAR Obreve
ENCODING 334
SWIDTH 500 0
DWIDTH 8 0
BBX 7 11 0 0
BITMAP
04
00
38
44
40
82
82
82
82
44
38
ENDCHAR
STARTCHAR obreve
ENCODING 335
SWIDTH 400 0
DWIDTH 6 0
BBX 6 9 0 0
BITMAP
48
30
00
48
84
84
84
48
30
ENDCHAR
STARTCHAR Ohungarumlaut
ENCODING 336
SWIDTH 500 0
DWIDTH 8 0
BBX 7 11 0 0
BITMAP
14
00
38
44
40
82
82
82
82
44
38
ENDCHAR
STARTCHAR ohungarumlaut
ENCODING 337
SWIDTH 400 0
DWIDTH 6 0
BBX 6 9 0 0
BITMAP
28
10
00
48
84
84
84
48
30
ENDCHAR
STARTCHAR OE
ENCODING 338
SWIDTH 650 0
DWIDTH 10 0
BBX 10 9 0 0
BITMAP
3FC0
4840
4800
8900
8F00
8900
8800
4840
3FC0
ENDCHAR
STARTCHAR oe
ENCODING 339
SWIDTH 700 0
DWIDTH 11 0
BBX 10 6 0 0
BITMAP
4840
8400
87C0
8400
4840
3380
ENDCHAR
STARTCHAR Racute
ENCODING 340
SWIDTH 450 0
DWIDTH 7 0
BBX 6 11 0 0
BITMAP
10
00
F8
44
40
44
78
50
48
44
C0
ENDCHAR
STARTCHAR racute
ENCODING 341
SWIDTH 400 0
DWIDTH 6 0
BBX 6 9 0 0
BITMAP
10
20
00
44
40
40
40
40
C0
ENDCHAR
STARTCHAR Rcommaaccent
ENCODING 342
SWIDTH 450 0
DWIDTH 7 0
BBX 6 12 0 -3
BITMAP
F8
44
40
44
78
50
48
44
C0
00
10
20
ENDCHAR
STARTCHAR rcommaaccent
ENCODING 343
SWIDTH 400 0
DWIDTH 6 0
BBX 6 8 0 -2
BITMAP
44
40
40
40
40
C0
00
20
ENDCHAR
STARTCHAR Rcaron
ENCODING 344
SWIDTH 450 0
DWIDTH 7 0
BBX 6 11 0 0
BITMAP
10
00
F8
44
40
44
78
50
48
44
C0
ENDCHAR
STARTCHAR rcaron
ENCODING 345
SWIDTH 400 0
DWIDTH 6 0
BBX 6 9 0 0
BITMAP
10
20
00
44
40
40
40
40
C0
ENDCHAR
STARTCHAR Sacute
ENCODING 346
SWIDTH 400 0
DWIDTH 6 0
BBX 6 11 0 0
BITMAP
10
00
34
4C
84
40
30
08
04
C8
B0
ENDCHAR
STARTCHAR sacute
ENCODING 347
SWIDTH 350 0
DWIDTH 6 0
BBX 5 9 0 0
BITMAP
20
00
00
98
88
40
30
C8
B0
ENDCHAR
STARTCHAR Scircumflex
ENCODING 348
SWIDTH 400 0
DWIDTH 6 0
BBX 6 11 0 0
BITMAP
20
00
34
4C
84
40
30
08
04
C8
B0
ENDCHAR
STARTCHAR scircumflex
ENCODING 349
SWIDTH 350 0
DWIDTH 6 0
BBX 5 9 0 0
BITMAP
20
50
00
98
88
40
30
C8
B0
ENDCHAR
STARTCHAR Scedilla
ENCODING 350
SWIDTH 400 0
DWIDTH 6 0
BBX 6 12 0 -3
BITMAP
34
4C
84
40
30
08
04
C8
B0
20
10
20
ENDCHAR
STARTCHAR scedilla
ENCODING 351
SWIDTH 350 0
DWIDTH 6 0
BBX 5 9 0 -3
BITMAP
98
88
40
30
C8
B0
20
10
20
ENDCHAR
STARTCHAR Scaron
ENCODING 352
SWIDTH 400 0
DWIDTH 6 0
BBX 6 11 0 0
BITMAP
10
00
34
4C
84
40
30
08
04
C8
B0
ENDCHAR
STARTCHAR scaron
ENCODING 353
SWIDTH 350 0
DWIDTH 6 0
BBX 5 9 0 0
BITMAP
50
20
00
98
88
40
30
C8
B0
ENDCHAR
STARTCHAR Tcommaaccent
ENCODING 354
SWIDTH 400 0
DWIDTH 6 0
BBX 6 12 0 -3
BITMAP
FC
A4
20
20
20
20
20
20
30
20
10
20
ENDCHAR
STARTCHAR tcommaaccent
ENCODING 355
SWIDTH 200 0
DWIDTH 3 0
BBX 2 12 1 -2
BITMAP
80
80
80
80
80
80
80
80
80
40
00
40
ENDCHAR
STARTCHAR Tcaron
ENCODING 356
SWIDTH 400 0
DWIDTH 6 0
BBX 6 11 0 0
BITMAP
10
00
FC
A4
20
20
20
20
20
20
30
ENDCHAR
STARTCHAR tcaron
ENCODING 357
SWIDTH 200 0
DWIDTH 3 0
BBX 3 10 1 0
BITMAP
E0
E0
A0
C0
80
80
80
80
80
40
ENDCHAR
STARTCHAR Tbar
ENCODING 358
SWIDTH 400 0
DWIDTH 6 0
BBX 6 9 0 0
BITMAP
FC
A4
20
20
78
20
20
20
30
ENDCHAR
STARTCHAR tbar
ENCODING 359
SWIDTH 200 0
DWIDTH 3 0
BBX 3 10 0 0
BITMAP
40
40
40
40
40
40
C0
40
40
20
ENDCHAR
STARTCHAR Utilde
ENCODING 360
SWIDTH 550 0
DWIDTH 9 0
BBX 8 11 0 0
BITMAP
30
00
C3
42
42
42
42
42
42
24
18
ENDCHAR
STARTCHAR utilde
ENCODING 361
SWIDTH 450 0
DWIDTH 7 0
BBX 5 9 1 0
BITMAP
48
B0
00
88
88
88
88
18
68
ENDCHAR
STARTCHAR Umacron
ENCODING 362
SWIDTH 550 0
DWIDTH 9 0
BBX 8 9 0 0
BITMAP
C3
42
42
42
42
42
42
24
18
ENDCHAR
STARTCHAR umacron
ENCODING 363
SWIDTH 450 0
DWIDTH 7 0
BBX 5 8 1 0
BITMAP
F0
00
88
88
88
88
18
68
ENDCHAR
STARTCHAR Ubreve
ENCODING 364
SWIDTH 550 0
DWIDTH 9 0
BBX 8 9 0 0
BITMAP
C3
42
42
42
42
42
42
24
18
ENDCHAR
STARTCHAR ubreve
ENCODING 365
SWIDTH 450 0
DWIDTH 7 0
BBX 5 9 1 0
BITMAP
90
60
00
88
88
88
88
18
68
ENDCHAR
STARTCHAR Uring
ENCODING 366
SWIDTH 550 0
DWIDTH 9 0
BBX 8 11 0 0
BITMAP
18
18
C3
42
42
42
42
42
42
24
18
ENDCHAR
STARTCHAR uring
ENCODING 367
SWIDTH 450 0
DWIDTH 7 0
BBX 5 10 1 0
BITMAP
60
90
60
00
88
88
88
88
18
68
ENDCHAR
STARTCHAR Uhungarumlaut
ENCODING 368
SWIDTH 550 0
DWIDTH 9 0
BBX 8 11 0 0
BITMAP
14
00
C3
42
42
42
42
42
42
24
18
ENDCHAR
STARTCHAR uhungarumlaut
ENCODING 369
SWIDTH 450 0
DWIDTH 7 0
BBX 5 9 1 0
BITMAP
50
20
00
88
88
88
88
18
68
ENDCHAR
STARTCHAR Uogonek
ENCODING 370
SWIDTH 550 0
DWIDTH 9 0
BBX 8 12 0 -3
BITMAP
C3
42
42
42
42
42
42
24
18
08
10
08
ENDCHAR
STARTCHAR uogonek
ENCODING 371
SWIDTH 450 0
DWIDTH 7 0
BBX 5 9 1 -3
BITMAP
88
88
88
88
18
68
20
40
20
ENDCHAR
STARTCHAR Wcircumflex
ENCODING 372
SWIDTH 700 0
DWIDTH 11 0
BBX 10 11 0 0
BITMAP
0400
0000
C0C0
4040
4040
0480
0480
2900
2900
1200
1200
ENDCHAR
STARTCHAR wcircumflex
ENCODING 373
SWIDTH 500 0
DWIDTH 8 0
BBX 5 9 1 0
BITMAP
20
50
00
80
80
28
28
50
50
ENDCHAR
STARTCHAR Ycircumflex
ENCODING 374
SWIDTH 500 0
DWIDTH 8 0
BBX 7 11 0 0
BITMAP
10
00
C6
40
04
28
10
10
10
10
38
ENDCHAR
STARTCHAR ycircumflex
ENCODING 375
SWIDTH 400 0
DWIDTH 6 0
BBX 5 12 0 -3
BITMAP
20
10
00
48
48
10
10
20
20
00
00
80
ENDCHAR
STARTCHAR Ydieresis
ENCODING 376
SWIDTH 500 0
DWIDTH 8 0
BBX 7 9 0 0
BITMAP
C6
40
04
28
10
10
10
10
38
ENDCHAR
STARTCHAR Zacute
ENCODING 377
SWIDTH 400 0
DWIDTH 6 0
BBX 6 11 0 0
BITMAP
10
00
FC
84
08
10
20
00
00
84
FC
ENDCHAR
STARTCHAR zacute
ENCODING 378
SWIDTH 350 0
DWIDTH 6 0
BBX 5 9 0 0
BITMAP
20
00
00
88
10
20
00
88
F8
ENDCHAR
STARTCHAR Zdotaccent
ENCODING 379
SWIDTH 400 0
DWIDTH 6 0
BBX 6 9 0 0
BITMAP
FC
84
08
10
20
00
00
84
FC
ENDCHAR
STARTCHAR zdotaccent
ENCODING 380
SWIDTH 350 0
DWIDTH 6 0
BBX 5 8 0 0
BITMAP
20
00
88
10
20
00
88
F8
ENDCHAR
STARTCHAR Zcaron
ENCODING 381
SWIDTH 400 0
DWIDTH 6 0
BBX 6 11 0 0
BITMAP
10
00
FC
84
08
10
20
00
00
84
FC
ENDCHAR
STARTCHAR zcaron
ENCODING 382
SWIDTH 350 0
DWIDTH 6 0
BBX 5 9 0 0
BITMAP
50
20
00
88
10
20
00
88
F8
ENDCHAR
STARTCHAR longs
ENCODING 383
SWIDTH 200 0
DWIDTH 3 0
BBX 4 10 0 0
BITMAP
30
00
40
40
40
40
40
40
40
C0
ENDCHAR
STARTCHAR florin
ENCODING 402
SWIDTH 200 0
DWIDTH 3 0
BBX 6 13 -2 -3
BITMAP
0C
00
10
10
10
10
10
10
10
10
20
20
80
ENDCHAR
STARTCHAR uni0237
ENCODING 567
SWIDTH 150 0
DWIDTH 2 0
BBX 4 9 -2 -3
BITMAP
10
10
10
10
10
10
10
10
C0
ENDCHAR
STARTCHAR uni0250
ENCODING 592
SWIDTH 400 0
DWIDTH 6 0
BBX 5 6 1 0
BITMAP
88
88
90
E0
90
60
ENDCHAR
STARTCHAR uni0251
ENCODING 593
SWIDTH 400 0
DWIDTH 6 0
BBX 6 6 0 0
BITMAP
48
88
88
88
98
6C
ENDCHAR
STARTCHAR uni0252
ENCODING 594
SWIDTH 400 0
DWIDTH 6 0
BBX 5 6 1 0
BITMAP
88
88
88
88
90
E0
ENDCHAR
STARTCHAR uni0253
ENCODING 595
SWIDTH 450 0
DWIDTH 7 0
BBX 6 10 0 0
BITMAP
38
00
40
40
44
40
40
40
44
F8
ENDCHAR
STARTCHAR uni0254
ENCODING 596
SWIDTH 400 0
DWIDTH 6 0
BBX 6 6 0 0
BITMAP
C8
84
04
04
48
30
ENDCHAR
STARTCHAR uni0255
ENCODING 597
SWIDTH 400 0
DWIDTH 6 0
BBX 6 7 0 -1
BITMAP
4C
84
80
80
54
38
20
ENDCHAR
STARTCHAR uni0256
ENCODING 598
SWIDTH 450 0
DWIDTH 7 0
BBX 8 13 0 -3
BITMAP
0C
04
04
04
4C
84
84
84
4C
34
04
04
03
ENDCHAR
STARTCHAR uni0257
ENCODING 599
SWIDTH 450 0
DWIDTH 7 0
BBX 8 10 0 0
BITMAP
03
00
04
04
4C
84
84
84
4C
34
ENDCHAR
STARTCHAR uni0258
ENCODING 600
SWIDTH 400 0
DWIDTH 6 0
BBX 6 6 0 0
BITMAP
48
84
FC
04
48
30
ENDCHAR
STARTCHAR uni0259
ENCODING 601
SWIDTH 400 0
DWIDTH 6 0
BBX 6 6 0 0
BITMAP
48
04
04
FC
48
30
ENDCHAR
STARTCHAR uni025A
ENCODING 602
SWIDTH 550 0
DWIDTH 9 0
BBX 8 6 0 0
BITMAP
48
04
06
FE
49
30
ENDCHAR
STARTCHAR uni025B
ENCODING 603
SWIDTH 350 0
DWIDTH 6 0
BBX 5 6 0 0
BITMAP
88
80
70
80
88
70
ENDCHAR
STARTCHAR uni025C
ENCODING 604
SWIDTH 350 0
DWIDTH 6 0
BBX 5 6 0 0
BITMAP
88
08
70
08
88
70
ENDCHAR
STARTCHAR uni025D
ENCODING 605
SWIDTH 500 0
DWIDTH 8 0
BBX 7 6 0 0
BITMAP
88
0C
70
0A
88
70
ENDCHAR
STARTCHAR uni025E
ENCODING 606
SWIDTH 450 0
DWIDTH 7 0
BBX 6 5 0 0
BITMAP
40
BC
80
00
3C
ENDCHAR
STARTCHAR uni025F
ENCODING 607
SWIDTH 200 0
DWIDTH 3 0
BBX 4 9 -2 -3
BITMAP
10
10
10
10
10
30
10
10
C0
ENDCHAR
STARTCHAR uni0260
ENCODING 608
SWIDTH 450 0
DWIDTH 7 0
BBX 8 13 0 -3
BITMAP
03
00
04
04
4C
84
84
84
4C
34
04
04
30
ENDCHAR
STARTCHAR uni0261
ENCODING 609
SWIDTH 450 0
DWIDTH 7 0
BBX 6 9 0 -3
BITMAP
0C
44
84
84
54
24
04
44
30
ENDCHAR
STARTCHAR uni0262
ENCODING 610
SWIDTH 400 0
DWIDTH 6 0
BBX 6 6 0 0
BITMAP
4C
80
9C
84
4C
34
ENDCHAR
STARTCHAR uni0263
ENCODING 611
SWIDTH 400 0
DWIDTH 6 0
BBX 4 8 1 -2
BITMAP
90
90
20
20
40
40
20
40
ENDCHAR
STARTCHAR uni0264
ENCODING 612
SWIDTH 400 0
DWIDTH 6 0
BBX 6 6 0 0
BITMAP
A4
10
10
10
10
20
ENDCHAR
STARTCHAR uni0265
ENCODING 613
SWIDTH 450 0
DWIDTH 7 0
BBX 5 9 1 -3
BITMAP
88
88
88
88
18
68
08
08
08
ENDCHAR
STARTCHAR uni0266
ENCODING 614
SWIDTH 450 0
DWIDTH 7 0
BBX 6 10 0 0
BITMAP
38
00
40
40
48
44
44
44
44
CC
ENDCHAR
STARTCHAR uni0267
ENCODING 615
SWIDTH 450 0
DWIDTH 7 0
BBX 6 13 0 -3
BITMAP
38
00
40
40
48
44
44
44
44
C4
04
04
30
ENDCHAR
STARTCHAR uni0268
ENCODING 616
SWIDTH 200 0
DWIDTH 3 0
BBX 2 10 0 0
BITMAP
40
40
00
00
40
40
C0
40
40
C0
ENDCHAR
STARTCHAR uni0269
ENCODING 617
SWIDTH 200 0
DWIDTH 3 0
BBX 1 6 1 0
BITMAP
80
80
80
80
80
80
ENDCHAR
STARTCHAR uni026A
ENCODING 618
SWIDTH 200 0
DWIDTH 3 0
BBX 2 6 0 0
BITMAP
40
40
40
40
40
C0
ENDCHAR
STARTCHAR uni026B
ENCODING 619
SWIDTH 200 0
DWIDTH 3 0
BBX 4 10 -1 0
BITMAP
60
20
20
20
70
A0
20
20
20
60
ENDCHAR
STARTCHAR uni026C
ENCODING 620
SWIDTH 200 0
DWIDTH 3 0
BBX 3 10 -1 0
BITMAP
60
20
20
20
60
A0
60
20
20
60
ENDCHAR
STARTCHAR uni026D
ENCODING 621
SWIDTH 200 0
DWIDTH 3 0
BBX 4 13 0 -3
BITMAP
C0
40
40
40
40
40
40
40
40
40
40
40
30
ENDCHAR
STARTCHAR uni026E
ENCODING 622
SWIDTH 450 0
DWIDTH 7 0
BBX 6 13 0 -3
BITMAP
C0
40
40
40
44
48
50
78
40
C0
00
00
38
ENDCHAR
STARTCHAR uni026F
ENCODING 623
SWIDTH 700 0
DWIDTH 11 0
BBX 9 6 1 0
BITMAP
8880
8880
8880
8880
1180
6680
ENDCHAR
STARTCHAR uni0270
ENCODING 624
SWIDTH 700 0
DWIDTH 11 0
BBX 9 9 1 -3
BITMAP
8880
8880
8880
8880
1180
6680
0080
0080
0080
ENDCHAR
STARTCHAR uni0271
ENCODING 625
SWIDTH 650 0
DWIDTH 10 0
BBX 10 9 0 -3
BITMAP
4880
4440
4440
4440
4440
CC40
0040
0040
0300
ENDCHAR
STARTCHAR uni0272
ENCODING 626
SWIDTH 450 0
DWIDTH 7 0
BBX 8 9 -2 -3
BITMAP
12
11
11
11
11
13
10
10
C0
ENDCHAR
STARTCHAR uni0273
ENCODING 627
SWIDTH 400 0
DWIDTH 6 0
BBX 8 9 0 -3
BITMAP
48
44
44
44
44
C4
04
04
03
ENDCHAR
STARTCHAR uni0274
ENCODING 628
SWIDTH 450 0
DWIDTH 7 0
BBX 6 6 0 0
BITMAP
44
64
64
54
4C
C4
ENDCHAR
STARTCHAR uni0275
ENCODING 629
SWIDTH 400 0
DWIDTH 6 0
BBX 6 6 0 0
BITMAP
48
84
FC
84
48
30
ENDCHAR
STARTCHAR uni0276
ENCODING 630
SWIDTH 550 0
DWIDTH 9 0
BBX 8 6 0 0
BITMAP
51
90
9C
90
51
3F
ENDCHAR
STARTCHAR uni0277
ENCODING 631
SWIDTH 500 0
DWIDTH 8 0
BBX 7 6 0 0
BITMAP
04
40
92
92
92
6C
ENDCHAR
STARTCHAR uni0278
ENCODING 632
SWIDTH 400 0
DWIDTH 6 0
BBX 6 10 0 -2
BITMAP
30
20
68
A4
A4
A4
68
30
20
30
ENDCHAR
STARTCHAR uni0279
ENCODING 633
SWIDTH 400 0
DWIDTH 6 0
BBX 6 6 0 0
BITMAP
08
08
08
08
98
6C
ENDCHAR
STARTCHAR uni027A
ENCODING 634
SWIDTH 400 0
DWIDTH 6 0
BBX 6 10 0 0
BITMAP
1C
08
08
08
08
08
08
08
98
6C
ENDCHAR
STARTCHAR uni027B
ENCODING 635
SWIDTH 400 0
DWIDTH 6 0
BBX 7 9 0 -3
BITMAP
08
08
08
08
98
68
08
08
02
ENDCHAR
STARTCHAR uni027C
ENCODING 636
SWIDTH 400 0
DWIDTH 6 0
BBX 6 9 0 -3
BITMAP
44
40
40
40
40
40
40
40
C0
ENDCHAR
STARTCHAR uni027D
ENCODING 637
SWIDTH 400 0
DWIDTH 6 0
BBX 5 9 1 -3
BITMAP
88
80
80
80
80
80
80
80
60
ENDCHAR
STARTCHAR uni027E
ENCODING 638
SWIDTH 400 0
DWIDTH 6 0
BBX 6 6 0 0
BITMAP
04
40
40
40
40
C0
ENDCHAR
STARTCHAR uni027F
ENCODING 639
SWIDTH 400 0
DWIDTH 6 0
BBX 6 6 0 0
BITMAP
90
08
08
08
08
1C
ENDCHAR
STARTCHAR uni0280
ENCODING 640
SWIDTH 400 0
DWIDTH 6 0
BBX 6 6 0 0
BITMAP
44
44
44
78
50
CC
ENDCHAR
STARTCHAR uni0281
ENCODING 641
SWIDTH 400 0
DWIDTH 6 0
BBX 6 6 0 0
BITMAP
50
60
78
44
44
F8
ENDCHAR
STARTCHAR uni0282
ENCODING 642
SWIDTH 350 0
DWIDTH 6 0
BBX 5 9 0 -3
BITMAP
98
88
40
30
C8
B0
80
80
30
ENDCHAR
STARTCHAR uni0283
ENCODING 643
SWIDTH 200 0
DWIDTH 3 0
BBX 6 13 -2 -3
BITMAP
0C
00
10
10
10
10
10
10
10
10
10
10
C0
ENDCHAR
STARTCHAR uni0284
ENCODING 644
SWIDTH 200 0
DWIDTH 3 0
BBX 6 13 -2 -3
BITMAP
0C
00
10
10
10
10
10
10
10
30
10
10
C0
ENDCHAR
STARTCHAR uni0285
ENCODING 645
SWIDTH 300 0
DWIDTH 5 0
BBX 6 10 -2 0
BITMAP
C0
20
10
10
10
10
10
10
00
0C
ENDCHAR
STARTCHAR uni0286
ENCODING 646
SWIDTH 200 0
DWIDTH 3 0
BBX 6 13 -2 -3
BITMAP
0C
00
10
10
10
10
10
10
10
10
10
D0
D0
ENDCHAR
STARTCHAR uni0287
ENCODING 647
SWIDTH 200 0
DWIDTH 3 0
BBX 2 9 0 -3
BITMAP
40
40
40
40
40
C0
40
40
40
ENDCHAR
STARTCHAR uni0288
ENCODING 648
SWIDTH 200 0
DWIDTH 3 0
BBX 3 13 1 -3
BITMAP
80
80
80
80
80
80
80
80
80
80
80
80
60
ENDCHAR
STARTCHAR uni0289
ENCODING 649
SWIDTH 450 0
DWIDTH 7 0
BBX 6 6 0 0
BITMAP
44
44
FC
44
0C
34
ENDCHAR
STARTCHAR uni028A
ENCODING 650
SWIDTH 450 0
DWIDTH 7 0
BBX 5 6 1 0
BITMAP
10
10
88
88
10
60
ENDCHAR
STARTCHAR uni028B
ENCODING 651
SWIDTH 400 0
DWIDTH 6 0
BBX 5 6 1 0
BITMAP
90
88
88
88
10
60
ENDCHAR
STARTCHAR uni028C
ENCODING 652
SWIDTH 400 0
DWIDTH 6 0
BBX 6 6 0 0
BITMAP
20
10
10
10
48
DC
ENDCHAR
STARTCHAR uni028D
ENCODING 653
SWIDTH 500 0
DWIDTH 8 0
BBX 7 6 0 0
BITMAP
28
14
14
14
40
C6
ENDCHAR
STARTCHAR uni028E
ENCODING 654
SWIDTH 400 0
DWIDTH 6 0
BBX 6 10 0 0
BITMAP
04
08
10
10
20
10
10
10
48
DC
ENDCHAR
STARTCHAR uni028F
ENCODING 655
SWIDTH 400 0
DWIDTH 6 0
BBX 4 6 1 0
BITMAP
90
20
20
40
40
60
ENDCHAR
STARTCHAR uni0290
ENCODING 656
SWIDTH 350 0
DWIDTH 6 0
BBX 7 9 0 -3
BITMAP
88
10
20
00
88
F8
08
08
02
ENDCHAR
STARTCHAR uni0291
ENCODING 657
SWIDTH 350 0
DWIDTH 6 0
BBX 5 8 0 -2
BITMAP
88
10
20
00
A8
F0
00
40
ENDCHAR
STARTCHAR uni0292
ENCODING 658
SWIDTH 350 0
DWIDTH 6 0
BBX 5 9 0 -3
BITMAP
88
10
20
00
10
08
08
08
60
ENDCHAR
STARTCHAR uni0293
ENCODING 659
SWIDTH 350 0
DWIDTH 6 0
BBX 5 11 0 -5
BITMAP
88
10
20
00
10
08
08
48
60
20
10
ENDCHAR
STARTCHAR uni0294
ENCODING 660
SWIDTH 400 0
DWIDTH 6 0
BBX 6 9 0 0
BITMAP
30
48
84
08
10
20
20
20
30
ENDCHAR
STARTCHAR uni0295
ENCODING 661
SWIDTH 400 0
DWIDTH 6 0
BBX 6 9 0 0
BITMAP
30
48
84
40
00
20
20
20
30
ENDCHAR
STARTCHAR uni0296
ENCODING 662
SWIDTH 400 0
DWIDTH 6 0
BBX 5 9 1 0
BITMAP
60
40
40
40
20
10
08
90
60
ENDCHAR
STARTCHAR uni0297
ENCODING 663
SWIDTH 400 0
DWIDTH 6 0
BBX 6 9 0 -3
BITMAP
4C
84
80
80
80
80
80
84
30
ENDCHAR
STARTCHAR uni0298
ENCODING 664
SWIDTH 400 0
DWIDTH 6 0
BBX 6 6 0 0
BITMAP
48
A4
B4
B4
48
30
ENDCHAR
STARTCHAR uni0299
ENCODING 665
SWIDTH 400 0
DWIDTH 6 0
BBX 6 6 0 0
BITMAP
44
44
78
44
44
F8
ENDCHAR
STARTCHAR uni029A
ENCODING 666
SWIDTH 450 0
DWIDTH 7 0
BBX 6 6 0 0
BITMAP
88
84
70
80
88
70
ENDCHAR
STARTCHAR uni029B
ENCODING 667
SWIDTH 400 0
DWIDTH 6 0
BBX 8 10 0 0
BITMAP
03
00
04
04
4C
80
9C
84
4C
34
ENDCHAR
STARTCHAR uni029C
ENCODING 668
SWIDTH 450 0
DWIDTH 7 0
BBX 6 6 0 0
BITMAP
44
44
7C
44
44
CC
ENDCHAR
STARTCHAR uni029D
ENCODING 669
SWIDTH 150 0
DWIDTH 2 0
BBX 4 13 -2 -3
BITMAP
10
10
00
00
10
10
10
10
10
10
10
D0
D0
ENDCHAR
STARTCHAR uni029E
ENCODING 670
SWIDTH 450 0
DWIDTH 7 0
BBX 5 9 1 -3
BITMAP
88
08
58
28
08
C8
08
08
08
ENDCHAR
STARTCHAR uni029F
ENCODING 671
SWIDTH 400 0
DWIDTH 6 0
BBX 6 6 0 0
BITMAP
40
40
40
40
44
FC
ENDCHAR
STARTCHAR uni02A0
ENCODING 672
SWIDTH 450 0
DWIDTH 7 0
BBX 8 13 0 -3
BITMAP
03
00
04
04
4C
84
84
84
4C
34
04
04
0C
ENDCHAR
STARTCHAR uni02A1
ENCODING 673
SWIDTH 400 0
DWIDTH 6 0
BBX 6 9 0 0
BITMAP
30
48
84
08
10
20
30
20
30
ENDCHAR
STARTCHAR uni02A2
ENCODING 674
SWIDTH 400 0
DWIDTH 6 0
BBX 6 9 0 0
BITMAP
30
48
84
40
00
20
30
20
30
ENDCHAR
STARTCHAR uni02A3
ENCODING 675
SWIDTH 750 0
DWIDTH 12 0
BBX 11 10 0 0
BITMAP
0C00
0400
0400
0400
4E20
8400
8440
8480
4E20
37E0
ENDCHAR
STARTCHAR uni02A4
ENCODING 676
SWIDTH 750 0
DWIDTH 12 0
BBX 11 13 0 -3
BITMAP
0C00
0400
0400
0400
4E20
8400
8440
8480
4C00
3420
0020
0020
01C0
ENDCHAR
STARTCHAR uni02A5
ENCODING 677
SWIDTH 750 0
DWIDTH 12 0
BBX 11 12 0 -2
BITMAP
0C00
0400
0400
0400
4E20
8400
8440
8480
4E60
37C0
0080
0100
ENDCHAR
STARTCHAR uni02A6
ENCODING 678
SWIDTH 550 0
DWIDTH 9 0
BBX 7 10 1 0
BITMAP
80
80
80
80
A6
A2
98
84
B2
6C
ENDCHAR
STARTCHAR uni02A7
ENCODING 679
SWIDTH 350 0
DWIDTH 6 0
BBX 5 13 1 -3
BITMAP
88
90
A0
A0
A0
A0
A0
A0
A0
60
20
20
80
ENDCHAR
STARTCHAR uni02A8
ENCODING 680
SWIDTH 600 0
DWIDTH 10 0
BBX 8 12 1 -2
BITMAP
80
80
80
80
93
A1
A0
A0
B5
4E
00
08
ENDCHAR
STARTCHAR uni02A9
ENCODING 681
SWIDTH 600 0
DWIDTH 10 0
BBX 9 13 0 -3
BITMAP
3000
0000
4000
4000
4D00
4880
4880
4880
4880
DC80
0080
0080
0600
ENDCHAR
STARTCHAR uni02AA
ENCODING 682
SWIDTH 500 0
DWIDTH 8 0
BBX 7 10 0 0
BITMAP
C0
40
40
40
62
62
58
44
72
EC
ENDCHAR
STARTCHAR uni02AB
ENCODING 683
SWIDTH 500 0
DWIDTH 8 0
BBX 7 10 0 0
BITMAP
C0
40
40
40
62
40
44
48
62
FE
ENDCHAR
STARTCHAR uni02AC
ENCODING 684
SWIDTH 500 0
DWIDTH 8 0
BBX 7 9 0 0
BITMAP
C6
50
14
28
00
C6
50
28
28
ENDCHAR
STARTCHAR uni02AD
ENCODING 685
SWIDTH 500 0
DWIDTH 8 0
BBX 7 9 0 0
BITMAP
FE
82
82
82
00
FE
82
82
82
ENDCHAR
STARTCHAR uni02AE
ENCODING 686
SWIDTH 450 0
DWIDTH 7 0
BBX 5 9 1 -3
BITMAP
88
88
88
88
18
68
08
08
08
ENDCHAR
STARTCHAR uni02AF
ENCODING 687
SWIDTH 450 0
DWIDTH 7 0
BBX 7 9 1 -3
BITMAP
88
88
88
88
18
68
08
08
06
ENDCHAR
STARTCHAR circumflex
ENCODING 710
SWIDTH 300 0
DWIDTH 5 0
BBX 4 2 0 7
BITMAP
60
90
ENDCHAR
STARTCHAR caron
ENCODING 711
SWIDTH 300 0
DWIDTH 5 0
BBX 4 2 0 8
BITMAP
90
60
ENDCHAR
STARTCHAR uni02C8
ENCODING 712
SWIDTH 200 0
DWIDTH 3 0
BBX 1 3 1 7
BITMAP
80
80
80
ENDCHAR
STARTCHAR macron
ENCODING 713
SWIDTH 300 0
DWIDTH 5 0
BBX 4 1 0 9
BITMAP
F0
ENDCHAR
STARTCHAR uni02CA
ENCODING 714
SWIDTH 150 0
DWIDTH 2 0
BBX 2 2 0 8
BITMAP
40
80
ENDCHAR
STARTCHAR uni02CB
ENCODING 715
SWIDTH 150 0
DWIDTH 2 0
BBX 2 2 0 8
BITMAP
80
40
ENDCHAR
STARTCHAR uni02D2
ENCODING 722
SWIDTH 150 0
DWIDTH 2 0
BBX 2 4 0 6
BITMAP
80
40
40
80
ENDCHAR
STARTCHAR uni02D3
ENCODING 723
SWIDTH 150 0
DWIDTH 2 0
BBX 2 4 0 6
BITMAP
40
80
80
40
ENDCHAR
STARTCHAR uni02D4
ENCODING 724
SWIDTH 200 0
DWIDTH 3 0
BBX 2 3 0 7
BITMAP
40
40
C0
ENDCHAR
STARTCHAR uni02D5
ENCODING 725
SWIDTH 200 0
DWIDTH 3 0
BBX 2 3 0 7
BITMAP
C0
40
40
ENDCHAR
STARTCHAR uni02D6
ENCODING 726
SWIDTH 200 0
DWIDTH 3 0
BBX 2 3 0 7
BITMAP
40
C0
40
ENDCHAR
STARTCHAR uni02D7
ENCODING 727
SWIDTH 200 0
DWIDTH 3 0
BBX 2 1 0 8
BITMAP
C0
ENDCHAR
STARTCHAR breve
ENCODING 728
SWIDTH 300 0
DWIDTH 5 0
BBX 4 2 0 8
BITMAP
90
60
ENDCHAR
STARTCHAR dotaccent
ENCODING 729
SWIDTH 250 0
DWIDTH 4 0
BBX 1 1 1 9
BITMAP
80
ENDCHAR
STARTCHAR ring
ENCODING 730
SWIDTH 300 0
DWIDTH 5 0
BBX 4 3 0 7
BITMAP
60
90
60
ENDCHAR
STARTCHAR ogonek
ENCODING 731
SWIDTH 300 0
DWIDTH 5 0
BBX 1 1 1 -2
BITMAP
80
ENDCHAR
STARTCHAR tilde
ENCODING 732
SWIDTH 350 0
DWIDTH 6 0
BBX 5 2 0 8
BITMAP
48
B0
ENDCHAR
STARTCHAR hungarumlaut
ENCODING 733
SWIDTH 350 0
DWIDTH 6 0
BBX 5 3 0 7
BITMAP
08
50
A0
ENDCHAR
STARTCHAR uni0300
ENCODING 768
SWIDTH 0 0
DWIDTH 0 0
BBX 2 2 -5 8
BITMAP
80
40
ENDCHAR
STARTCHAR uni0301
ENCODING 769
SWIDTH 0 0
DWIDTH 0 0
BBX 2 2 -4 8
BITMAP
40
80
ENDCHAR
STARTCHAR uni0302
ENCODING 770
SWIDTH 0 0
DWIDTH 0 0
BBX 3 2 -5 8
BITMAP
40
A0
ENDCHAR
STARTCHAR uni0303
ENCODING 771
SWIDTH 0 0
DWIDTH 0 0
BBX 4 2 -6 8
BITMAP
60
B0
ENDCHAR
STARTCHAR uni0304
ENCODING 772
SWIDTH 0 0
DWIDTH 0 0
BBX 4 1 -6 9
BITMAP
F0
ENDCHAR
STARTCHAR uni0305
ENCODING 773
SWIDTH 0 0
DWIDTH 0 0
BBX 7 1 -7 9
BITMAP
FE
ENDCHAR
STARTCHAR uni0306
ENCODING 774
SWIDTH 0 0
DWIDTH 0 0
BBX 4 2 -6 8
BITMAP
80
70
ENDCHAR
STARTCHAR uni0307
ENCODING 775
SWIDTH 0 0
DWIDTH 0 0
BBX 2 1 -5 9
BITMAP
C0
ENDCHAR
STARTCHAR uni0308
ENCODING 776
SWIDTH 0 0
DWIDTH 0 0
BBX 4 1 -6 9
BITMAP
D0
ENDCHAR
STARTCHAR uni030A
ENCODING 778
SWIDTH 0 0
DWIDTH 0 0
BBX 4 2 -6 8
BITMAP
80
70
ENDCHAR
STARTCHAR uni030B
ENCODING 779
SWIDTH 0 0
DWIDTH 0 0
BBX 3 2 -5 8
BITMAP
40
A0
ENDCHAR
STARTCHAR uni030C
ENCODING 780
SWIDTH 0 0
DWIDTH 0 0
BBX 3 2 -5 8
BITMAP
A0
40
ENDCHAR
STARTCHAR uni0370
ENCODING 880
SWIDTH 400 0
DWIDTH 6 0
BBX 6 9 0 0
BITMAP
C0
40
40
40
7C
40
40
40
C0
ENDCHAR
STARTCHAR uni0371
ENCODING 881
SWIDTH 350 0
DWIDTH 6 0
BBX 5 6 0 0
BITMAP
40
40
78
40
40
C0
ENDCHAR
STARTCHAR uni0372
ENCODING 882
SWIDTH 400 0
DWIDTH 6 0
BBX 6 12 0 -3
BITMAP
FC
A4
20
20
20
20
20
20
20
20
20
20
ENDCHAR
STARTCHAR uni0373
ENCODING 883
SWIDTH 400 0
DWIDTH 6 0
BBX 6 12 0 -3
BITMAP
7C
A4
20
20
20
20
20
20
20
20
20
20
ENDCHAR
STARTCHAR uni0374
ENCODING 884
SWIDTH 150 0
DWIDTH 2 0
BBX 2 4 0 6
BITMAP
40
40
80
80
ENDCHAR
STARTCHAR uni0375
ENCODING 885
SWIDTH 150 0
DWIDTH 2 0
BBX 2 3 0 -1
BITMAP
40
80
80
ENDCHAR
STARTCHAR uni0376
ENCODING 886
SWIDTH 500 0
DWIDTH 8 0
BBX 7 9 0 0
BITMAP
C2
44
44
48
50
50
60
40
46
ENDCHAR
STARTCHAR uni0377
ENCODING 887
SWIDTH 450 0
DWIDTH 7 0
BBX 5 6 1 0
BITMAP
98
A8
A8
C8
88
98
ENDCHAR
STARTCHAR uni037A
ENCODING 890
SWIDTH 200 0
DWIDTH 3 0
BBX 2 3 0 -1
BITMAP
C0
40
40
ENDCHAR
STARTCHAR uni037B
ENCODING 891
SWIDTH 400 0
DWIDTH 6 0
BBX 6 6 0 0
BITMAP
C8
84
04
04
48
30
ENDCHAR
STARTCHAR uni037C
ENCODING 892
SWIDTH 400 0
DWIDTH 6 0
BBX 6 6 0 0
BITMAP
4C
84
A0
A0
48
30
ENDCHAR
STARTCHAR uni037D
ENCODING 893
SWIDTH 400 0
DWIDTH 6 0
BBX 6 6 0 0
BITMAP
C8
84
24
24
48
30
ENDCHAR
STARTCHAR uni037E
ENCODING 894
SWIDTH 150 0
DWIDTH 2 0
BBX 2 7 0 -1
BITMAP
40
40
00
00
40
40
80
ENDCHAR
STARTCHAR tonos
ENCODING 900
SWIDTH 200 0
DWIDTH 3 0
BBX 2 2 0 7
BITMAP
40
80
ENDCHAR
STARTCHAR dieresistonos
ENCODING 901
SWIDTH 300 0
DWIDTH 5 0
BBX 4 1 0 7
BITMAP
F0
ENDCHAR
STARTCHAR Alphatonos
ENCODING 902
SWIDTH 500 0
DWIDTH 8 0
BBX 7 9 0 0
BITMAP
70
90
28
28
04
3C
04
40
C6
ENDCHAR
STARTCHAR anoteleia
ENCODING 903
SWIDTH 100 0
DWIDTH 2 0
BBX 1 2 0 4
BITMAP
80
80
ENDCHAR
STARTCHAR Epsilontonos
ENCODING 904
SWIDTH 600 0
DWIDTH 10 0
BBX 9 9 0 0
BITMAP
7F80
9080
1000
1200
1E00
1200
1000
1080
3F80
ENDCHAR
STARTCHAR Etatonos
ENCODING 905
SWIDTH 650 0
DWIDTH 10 0
BBX 10 9 0 0
BITMAP
79C0
9080
1080
1080
1F80
1080
1080
1080
39C0
ENDCHAR
STARTCHAR Iotatonos
ENCODING 906
SWIDTH 350 0
DWIDTH 6 0
BBX 5 9 0 0
BITMAP
78
90
10
10
10
10
10
10
38
ENDCHAR
STARTCHAR Omicrontonos
ENCODING 908
SWIDTH 600 0
DWIDTH 10 0
BBX 9 9 0 0
BITMAP
4C00
B300
2100
0080
0080
0080
0080
3300
0C00
ENDCHAR
STARTCHAR Upsilontonos
ENCODING 910
SWIDTH 650 0
DWIDTH 10 0
BBX 10 9 0 0
BITMAP
79C0
9080
0900
0600
0000
0000
0000
0000
0600
ENDCHAR
STARTCHAR Omegatonos
ENCODING 911
SWIDTH 650 0
DWIDTH 10 0
BBX 10 9 0 0
BITMAP
4E00
B180
2080
0040
0040
2080
3180
0A40
3BC0
ENDCHAR
STARTCHAR iotadieresistonos
ENCODING 912
SWIDTH 200 0
DWIDTH 3 0
BBX 4 9 -1 1
BITMAP
20
00
D0
00
20
20
20
20
20
ENDCHAR
STARTCHAR Alpha
ENCODING 913
SWIDTH 500 0
DWIDTH 8 0
BBX 7 9 0 0
BITMAP
30
10
28
28
04
3C
04
40
C6
ENDCHAR
STARTCHAR Beta
ENCODING 914
SWIDTH 450 0
DWIDTH 7 0
BBX 6 9 0 0
BITMAP
F8
44
40
44
78
44
40
44
F8
ENDCHAR
STARTCHAR Gamma
ENCODING 915
SWIDTH 450 0
DWIDTH 7 0
BBX 6 9 0 0
BITMAP
FC
40
40
40
40
40
40
40
C0
ENDCHAR
STARTCHAR Delta
ENCODING 916
SWIDTH 500 0
DWIDTH 8 0
BBX 7 9 0 0
BITMAP
10
10
28
04
04
04
40
82
FE
ENDCHAR
STARTCHAR Epsilon
ENCODING 917
SWIDTH 450 0
DWIDTH 7 0
BBX 6 9 0 0
BITMAP
FC
40
40
48
78
48
40
40
FC
ENDCHAR
STARTCHAR Zeta
ENCODING 918
SWIDTH 400 0
DWIDTH 6 0
BBX 6 9 0 0
BITMAP
FC
84
08
10
20
00
00
84
FC
ENDCHAR
STARTCHAR Eta
ENCODING 919
SWIDTH 500 0
DWIDTH 8 0
BBX 7 9 0 0
BITMAP
C6
40
40
40
7C
40
40
40
C6
ENDCHAR
STARTCHAR Theta
ENCODING 920
SWIDTH 500 0
DWIDTH 8 0
BBX 7 9 0 0
BITMAP
38
44
40
86
BE
86
82
44
38
ENDCHAR
STARTCHAR Iota
ENCODING 921
SWIDTH 200 0
DWIDTH 3 0
BBX 2 9 0 0
BITMAP
C0
40
40
40
40
40
40
40
C0
ENDCHAR
STARTCHAR Kappa
ENCODING 922
SWIDTH 450 0
DWIDTH 7 0
BBX 6 9 0 0
BITMAP
CC
44
48
60
50
48
48
44
CC
ENDCHAR
STARTCHAR Lambda
ENCODING 923
SWIDTH 500 0
DWIDTH 8 0
BBX 7 9 0 0
BITMAP
30
10
28
28
04
04
04
40
C6
ENDCHAR
STARTCHAR Mu
ENCODING 924
SWIDTH 600 0
DWIDTH 10 0
BBX 9 9 0 0
BITMAP
C180
4300
6100
4900
4900
4100
4100
4100
C380
ENDCHAR
STARTCHAR Nu
ENCODING 925
SWIDTH 500 0
DWIDTH 8 0
BBX 7 9 0 0
BITMAP
C6
40
40
60
50
50
48
44
C0
ENDCHAR
STARTCHAR Xi
ENCODING 926
SWIDTH 400 0
DWIDTH 6 0
BBX 6 9 0 0
BITMAP
FC
84
00
48
78
48
00
84
FC
ENDCHAR
STARTCHAR Omicron
ENCODING 927
SWIDTH 500 0
DWIDTH 8 0
BBX 7 9 0 0
BITMAP
38
44
40
82
82
82
82
44
38
ENDCHAR
STARTCHAR Pi
ENCODING 928
SWIDTH 500 0
DWIDTH 8 0
BBX 7 9 0 0
BITMAP
FE
40
40
40
40
40
40
40
C6
ENDCHAR
STARTCHAR Rho
ENCODING 929
SWIDTH 450 0
DWIDTH 7 0
BBX 6 9 0 0
BITMAP
F8
44
40
44
78
40
40
40
C0
ENDCHAR
STARTCHAR Sigma
ENCODING 931
SWIDTH 450 0
DWIDTH 7 0
BBX 6 9 0 0
BITMAP
FC
40
00
10
08
10
20
40
FC
ENDCHAR
STARTCHAR Tau
ENCODING 932
SWIDTH 400 0
DWIDTH 6 0
BBX 6 9 0 0
BITMAP
FC
A4
20
20
20
20
20
20
30
ENDCHAR
STARTCHAR Upsilon
ENCODING 933
SWIDTH 500 0
DWIDTH 8 0
BBX 7 9 0 0
BITMAP
C6
40
04
28
10
10
10
10
38
ENDCHAR
STARTCHAR Phi
ENCODING 934
SWIDTH 400 0
DWIDTH 6 0
BBX 6 9 0 0
BITMAP
30
20
30
A4
A4
A4
68
20
30
ENDCHAR
STARTCHAR Chi
ENCODING 935
SWIDTH 500 0
DWIDTH 8 0
BBX 7 9 0 0
BITMAP
C6
40
04
28
10
28
04
40
C6
ENDCHAR
STARTCHAR Psi
ENCODING 936
SWIDTH 500 0
DWIDTH 8 0
BBX 7 9 0 0
BITMAP
BA
50
50
14
38
10
10
10
38
ENDCHAR
STARTCHAR Omega
ENCODING 937
SWIDTH 550 0
DWIDTH 9 0
BBX 8 9 0 0
BITMAP
3C
42
42
81
81
42
42
A5
E7
ENDCHAR
STARTCHAR Iotadieresis
ENCODING 938
SWIDTH 200 0
DWIDTH 3 0
BBX 2 9 0 0
BITMAP
C0
40
40
40
40
40
40
40
C0
ENDCHAR
STARTCHAR Upsilondieresis
ENCODING 939
SWIDTH 500 0
DWIDTH 8 0
BBX 7 9 0 0
BITMAP
C6
40
04
28
10
10
10
10
38
ENDCHAR
STARTCHAR alphatonos
ENCODING 940
SWIDTH 450 0
DWIDTH 7 0
BBX 6 9 0 0
BITMAP
10
20
00
54
88
88
88
54
20
ENDCHAR
STARTCHAR epsilontonos
ENCODING 941
SWIDTH 350 0
DWIDTH 6 0
BBX 5 9 0 0
BITMAP
20
00
00
88
80
70
80
88
70
ENDCHAR
STARTCHAR etatonos
ENCODING 942
SWIDTH 400 0
DWIDTH 6 0
BBX 6 12 0 -3
BITMAP
10
20
00
48
44
44
44
44
C4
04
04
04
ENDCHAR
STARTCHAR iotatonos
ENCODING 943
SWIDTH 200 0
DWIDTH 3 0
BBX 1 7 1 1
BITMAP
80
00
80
80
80
80
80
ENDCHAR
STARTCHAR upsilondieresistonos
ENCODING 944
SWIDTH 400 0
DWIDTH 6 0
BBX 5 10 1 0
BITMAP
40
00
B0
00
90
88
88
88
10
60
ENDCHAR
STARTCHAR alpha
ENCODING 945
SWIDTH 450 0
DWIDTH 7 0
BBX 6 6 0 0
BITMAP
54
88
88
88
54
20
ENDCHAR
STARTCHAR beta
ENCODING 946
SWIDTH 400 0
DWIDTH 6 0
BBX 6 12 0 -3
BITMAP
30
48
84
88
B0
88
84
88
B0
80
80
80
ENDCHAR
STARTCHAR gamma
ENCODING 947
SWIDTH 350 0
DWIDTH 6 0
BBX 4 9 1 -2
BITMAP
10
20
40
40
40
00
00
80
80
ENDCHAR
STARTCHAR delta
ENCODING 948
SWIDTH 400 0
DWIDTH 6 0
BBX 6 10 0 0
BITMAP
30
08
00
20
48
84
84
84
48
30
ENDCHAR
STARTCHAR epsilon
ENCODING 949
SWIDTH 350 0
DWIDTH 6 0
BBX 5 6 0 0
BITMAP
88
80
70
80
88
70
ENDCHAR
STARTCHAR zeta
ENCODING 950
SWIDTH 350 0
DWIDTH 6 0
BBX 5 13 0 -3
BITMAP
40
38
40
40
80
80
80
80
40
30
08
08
20
ENDCHAR
STARTCHAR eta
ENCODING 951
SWIDTH 400 0
DWIDTH 6 0
BBX 6 9 0 -3
BITMAP
48
44
44
44
44
C4
04
04
04
ENDCHAR
STARTCHAR theta
ENCODING 952
SWIDTH 400 0
DWIDTH 6 0
BBX 6 9 0 0
BITMAP
30
48
44
84
FC
84
84
58
20
ENDCHAR
STARTCHAR iota
ENCODING 953
SWIDTH 200 0
DWIDTH 3 0
BBX 1 5 1 1
BITMAP
80
80
80
80
80
ENDCHAR
STARTCHAR kappa
ENCODING 954
SWIDTH 450 0
DWIDTH 7 0
BBX 6 6 0 0
BITMAP
48
50
60
50
44
CC
ENDCHAR
STARTCHAR lambda
ENCODING 955
SWIDTH 400 0
DWIDTH 6 0
BBX 6 10 0 0
BITMAP
80
40
00
00
20
10
10
10
48
DC
ENDCHAR
STARTCHAR mu
ENCODING 956
SWIDTH 450 0
DWIDTH 7 0
BBX 5 9 1 -3
BITMAP
88
88
88
88
98
E8
80
80
80
ENDCHAR
STARTCHAR nu
ENCODING 957
SWIDTH 400 0
DWIDTH 6 0
BBX 5 6 1 0
BITMAP
88
88
88
90
A0
C0
ENDCHAR
STARTCHAR xi
ENCODING 958
SWIDTH 350 0
DWIDTH 6 0
BBX 5 13 0 -3
BITMAP
40
38
40
40
40
80
80
80
40
30
08
08
20
ENDCHAR
STARTCHAR omicron
ENCODING 959
SWIDTH 400 0
DWIDTH 6 0
BBX 6 6 0 0
BITMAP
48
84
84
84
48
30
ENDCHAR
STARTCHAR pi
ENCODING 960
SWIDTH 450 0
DWIDTH 7 0
BBX 6 6 0 0
BITMAP
88
08
08
08
48
44
ENDCHAR
STARTCHAR rho
ENCODING 961
SWIDTH 400 0
DWIDTH 6 0
BBX 6 9 0 -3
BITMAP
48
84
84
84
C8
B0
80
80
80
ENDCHAR
STARTCHAR sigma1
ENCODING 962
SWIDTH 400 0
DWIDTH 6 0
BBX 6 9 0 -3
BITMAP
40
80
80
80
40
38
04
04
30
ENDCHAR
STARTCHAR sigma
ENCODING 963
SWIDTH 400 0
DWIDTH 6 0
BBX 6 6 0 0
BITMAP
48
84
84
84
48
30
ENDCHAR
STARTCHAR tau
ENCODING 964
SWIDTH 400 0
DWIDTH 6 0
BBX 4 6 0 0
BITMAP
A0
20
20
20
20
10
ENDCHAR
STARTCHAR upsilon
ENCODING 965
SWIDTH 400 0
DWIDTH 6 0
BBX 5 6 1 0
BITMAP
90
88
88
88
10
60
ENDCHAR
STARTCHAR phi
ENCODING 966
SWIDTH 400 0
DWIDTH 6 0
BBX 6 9 0 -3
BITMAP
A8
A4
A4
A4
68
30
20
20
20
ENDCHAR
STARTCHAR chi
ENCODING 967
SWIDTH 450 0
DWIDTH 7 0
BBX 6 9 0 -3
BITMAP
84
04
28
30
30
30
10
48
84
ENDCHAR
STARTCHAR psi
ENCODING 968
SWIDTH 500 0
DWIDTH 8 0
BBX 5 9 1 -3
BITMAP
A0
A0
A0
A0
28
70
20
20
20
ENDCHAR
STARTCHAR omega
ENCODING 969
SWIDTH 600 0
DWIDTH 10 0
BBX 9 6 0 0
BITMAP
4100
8080
8880
8880
5500
2200
ENDCHAR
STARTCHAR iotadieresis
ENCODING 970
SWIDTH 200 0
DWIDTH 3 0
BBX 4 7 -1 1
BITMAP
D0
00
20
20
20
20
20
ENDCHAR
STARTCHAR upsilondieresis
ENCODING 971
SWIDTH 400 0
DWIDTH 6 0
BBX 5 8 1 0
BITMAP
B0
00
90
88
88
88
10
60
ENDCHAR
STARTCHAR omicrontonos
ENCODING 972
SWIDTH 400 0
DWIDTH 6 0
BBX 6 9 0 0
BITMAP
10
20
00
48
84
84
84
48
30
ENDCHAR
STARTCHAR upsilontonos
ENCODING 973
SWIDTH 400 0
DWIDTH 6 0
BBX 5 9 1 0
BITMAP
20
40
00
90
88
88
88
10
60
ENDCHAR
STARTCHAR omegatonos
ENCODING 974
SWIDTH 600 0
DWIDTH 10 0
BBX 9 9 0 0
BITMAP
0400
0800
0000
4100
8080
8880
8880
5500
2200
ENDCHAR
STARTCHAR uni0400
ENCODING 1024
SWIDTH 450 0
DWIDTH 7 0
BBX 6 11 0 0
BITMAP
20
00
FC
40
40
48
78
48
40
40
FC
ENDCHAR
STARTCHAR afii10023
ENCODING 1025
SWIDTH 450 0
DWIDTH 7 0
BBX 6 9 0 0
BITMAP
FC
40
40
48
78
48
40
40
FC
ENDCHAR
STARTCHAR afii10051
ENCODING 1026
SWIDTH 500 0
DWIDTH 8 0
BBX 7 12 0 -3
BITMAP
FC
A4
20
30
22
22
22
22
32
02
02
0C
ENDCHAR
STARTCHAR afii10052
ENCODING 1027
SWIDTH 450 0
DWIDTH 7 0
BBX 6 11 0 0
BITMAP
10
00
FC
40
40
40
40
40
40
40
C0
ENDCHAR
STARTCHAR afii10053
ENCODING 1028
SWIDTH 450 0
DWIDTH 7 0
BBX 6 9 0 0
BITMAP
38
44
40
88
F8
88
80
44
38
ENDCHAR
STARTCHAR afii10054
ENCODING 1029
SWIDTH 400 0
DWIDTH 6 0
BBX 6 9 0 0
BITMAP
34
4C
84
40
30
08
04
C8
B0
ENDCHAR
STARTCHAR afii10055
ENCODING 1030
SWIDTH 200 0
DWIDTH 3 0
BBX 2 9 0 0
BITMAP
C0
40
40
40
40
40
40
40
C0
ENDCHAR
STARTCHAR afii10056
ENCODING 1031
SWIDTH 200 0
DWIDTH 3 0
BBX 2 9 0 0
BITMAP
C0
40
40
40
40
40
40
40
C0
ENDCHAR
STARTCHAR afii10057
ENCODING 1032
SWIDTH 450 0
DWIDTH 7 0
BBX 6 9 0 0
BITMAP
0C
04
04
04
04
04
04
D8
20
ENDCHAR
STARTCHAR afii10058
ENCODING 1033
SWIDTH 750 0
DWIDTH 12 0
BBX 11 9 0 0
BITMAP
3E00
2000
2000
2000
23C0
2000
2020
A000
47C0
ENDCHAR
STARTCHAR afii10059
ENCODING 1034
SWIDTH 700 0
DWIDTH 11 0
BBX 10 9 0 0
BITMAP
CC00
4400
4400
4400
7F80
4440
4400
4440
CF80
ENDCHAR
STARTCHAR afii10060
ENCODING 1035
SWIDTH 550 0
DWIDTH 9 0
BBX 8 9 0 0
BITMAP
FC
A4
20
30
22
22
22
22
33
ENDCHAR
STARTCHAR afii10061
ENCODING 1036
SWIDTH 450 0
DWIDTH 7 0
BBX 6 11 0 0
BITMAP
10
00
CC
44
48
60
50
48
48
44
CC
ENDCHAR
STARTCHAR uni040D
ENCODING 1037
SWIDTH 500 0
DWIDTH 8 0
BBX 7 11 0 0
BITMAP
20
00
C2
44
44
48
50
50
60
40
46
ENDCHAR
STARTCHAR afii10062
ENCODING 1038
SWIDTH 500 0
DWIDTH 8 0
BBX 7 11 0 0
BITMAP
04
00
C6
40
04
28
10
10
20
80
40
ENDCHAR
STARTCHAR afii10145
ENCODING 1039
SWIDTH 500 0
DWIDTH 8 0
BBX 7 11 0 -2
BITMAP
C6
40
40
40
40
40
40
40
FE
10
10
ENDCHAR
STARTCHAR afii10017
ENCODING 1040
SWIDTH 500 0
DWIDTH 8 0
BBX 7 9 0 0
BITMAP
30
10
28
28
04
3C
04
40
C6
ENDCHAR
STARTCHAR afii10018
ENCODING 1041
SWIDTH 450 0
DWIDTH 7 0
BBX 6 9 0 0
BITMAP
FC
44
40
40
78
44
40
44
F8
ENDCHAR
STARTCHAR afii10019
ENCODING 1042
SWIDTH 450 0
DWIDTH 7 0
BBX 6 9 0 0
BITMAP
F8
44
40
44
78
44
40
44
F8
ENDCHAR
STARTCHAR afii10020
ENCODING 1043
SWIDTH 450 0
DWIDTH 7 0
BBX 6 9 0 0
BITMAP
FC
40
40
40
40
40
40
40
C0
ENDCHAR
STARTCHAR afii10021
ENCODING 1044
SWIDTH 500 0
DWIDTH 8 0
BBX 7 11 0 -2
BITMAP
3E
20
20
20
20
20
00
40
FE
82
82
ENDCHAR
STARTCHAR afii10022
ENCODING 1045
SWIDTH 450 0
DWIDTH 7 0
BBX 6 9 0 0
BITMAP
FC
40
40
48
78
48
40
40
FC
ENDCHAR
STARTCHAR afii10024
ENCODING 1046
SWIDTH 700 0
DWIDTH 11 0
BBX 10 9 0 0
BITMAP
CCC0
4440
0480
1600
2D00
0480
0480
4440
CCC0
ENDCHAR
STARTCHAR afii10025
ENCODING 1047
SWIDTH 400 0
DWIDTH 6 0
BBX 6 9 0 0
BITMAP
B0
C8
84
08
30
08
04
48
30
ENDCHAR
STARTCHAR afii10026
ENCODING 1048
SWIDTH 500 0
DWIDTH 8 0
BBX 7 9 0 0
BITMAP
C2
44
44
48
50
50
60
40
46
ENDCHAR
STARTCHAR afii10027
ENCODING 1049
SWIDTH 500 0
DWIDTH 8 0
BBX 7 11 0 0
BITMAP
04
00
C2
44
44
48
50
50
60
40
46
ENDCHAR
STARTCHAR afii10028
ENCODING 1050
SWIDTH 450 0
DWIDTH 7 0
BBX 6 9 0 0
BITMAP
CC
44
48
60
50
48
48
44
CC
ENDCHAR
STARTCHAR afii10029
ENCODING 1051
SWIDTH 500 0
DWIDTH 8 0
BBX 7 9 0 0
BITMAP
3E
20
20
20
20
20
20
A0
46
ENDCHAR
STARTCHAR afii10030
ENCODING 1052
SWIDTH 600 0
DWIDTH 10 0
BBX 9 9 0 0
BITMAP
C180
4300
6100
4900
4900
4100
4100
4100
C380
ENDCHAR
STARTCHAR afii10031
ENCODING 1053
SWIDTH 500 0
DWIDTH 8 0
BBX 7 9 0 0
BITMAP
C6
40
40
40
7C
40
40
40
C6
ENDCHAR
STARTCHAR afii10032
ENCODING 1054
SWIDTH 500 0
DWIDTH 8 0
BBX 7 9 0 0
BITMAP
38
44
40
82
82
82
82
44
38
ENDCHAR
STARTCHAR afii10033
ENCODING 1055
SWIDTH 500 0
DWIDTH 8 0
BBX 7 9 0 0
BITMAP
FE
40
40
40
40
40
40
40
C6
ENDCHAR
STARTCHAR afii10034
ENCODING 1056
SWIDTH 450 0
DWIDTH 7 0
BBX 6 9 0 0
BITMAP
F8
44
40
44
78
40
40
40
C0
ENDCHAR
STARTCHAR afii10035
ENCODING 1057
SWIDTH 450 0
DWIDTH 7 0
BBX 6 9 0 0
BITMAP
38
44
40
80
80
80
80
44
38
ENDCHAR
STARTCHAR afii10036
ENCODING 1058
SWIDTH 400 0
DWIDTH 6 0
BBX 6 9 0 0
BITMAP
FC
A4
20
20
20
20
20
20
30
ENDCHAR
STARTCHAR afii10037
ENCODING 1059
SWIDTH 500 0
DWIDTH 8 0
BBX 7 9 0 0
BITMAP
C6
40
04
28
10
10
20
80
40
ENDCHAR
STARTCHAR afii10038
ENCODING 1060
SWIDTH 500 0
DWIDTH 8 0
BBX 7 9 0 0
BITMAP
38
10
3C
92
92
92
50
10
38
ENDCHAR
STARTCHAR afii10039
ENCODING 1061
SWIDTH 500 0
DWIDTH 8 0
BBX 7 9 0 0
BITMAP
C6
40
04
28
10
28
04
40
C6
ENDCHAR
STARTCHAR afii10040
ENCODING 1062
SWIDTH 500 0
DWIDTH 8 0
BBX 7 11 0 -2
BITMAP
C6
40
40
40
40
40
40
40
FE
02
02
ENDCHAR
STARTCHAR afii10041
ENCODING 1063
SWIDTH 500 0
DWIDTH 8 0
BBX 7 9 0 0
BITMAP
C6
40
40
04
38
00
00
00
06
ENDCHAR
STARTCHAR afii10042
ENCODING 1064
SWIDTH 600 0
DWIDTH 10 0
BBX 9 9 0 0
BITMAP
DF80
4900
4900
4900
4900
4900
4900
4900
FF80
ENDCHAR
STARTCHAR afii10043
ENCODING 1065
SWIDTH 600 0
DWIDTH 10 0
BBX 9 11 0 -2
BITMAP
DF80
4900
4900
4900
4900
4900
4900
4900
FF80
0080
0080
ENDCHAR
STARTCHAR afii10044
ENCODING 1066
SWIDTH 550 0
DWIDTH 9 0
BBX 8 9 0 0
BITMAP
F0
A0
20
20
3C
22
21
22
3C
ENDCHAR
STARTCHAR afii10045
ENCODING 1067
SWIDTH 600 0
DWIDTH 10 0
BBX 9 9 0 0
BITMAP
C380
4100
4100
4100
7900
4500
4100
4500
FB80
ENDCHAR
STARTCHAR afii10046
ENCODING 1068
SWIDTH 450 0
DWIDTH 7 0
BBX 6 9 0 0
BITMAP
C0
40
40
40
78
44
40
44
F8
ENDCHAR
STARTCHAR afii10047
ENCODING 1069
SWIDTH 450 0
DWIDTH 7 0
BBX 6 9 0 0
BITMAP
B0
CC
84
00
3C
00
00
CC
30
ENDCHAR
STARTCHAR afii10048
ENCODING 1070
SWIDTH 650 0
DWIDTH 10 0
BBX 10 9 0 0
BITMAP
C600
5980
5080
6040
6040
6040
6040
5980
C600
ENDCHAR
STARTCHAR afii10049
ENCODING 1071
SWIDTH 450 0
DWIDTH 7 0
BBX 6 9 0 0
BITMAP
3C
44
84
44
3C
24
04
44
8C
ENDCHAR
STARTCHAR afii10065
ENCODING 1072
SWIDTH 400 0
DWIDTH 6 0
BBX 6 6 0 0
BITMAP
48
08
38
48
98
6C
ENDCHAR
STARTCHAR afii10066
ENCODING 1073
SWIDTH 400 0
DWIDTH 6 0
BBX 6 10 0 0
BITMAP
20
40
80
80
C8
84
84
84
48
30
ENDCHAR
STARTCHAR afii10067
ENCODING 1074
SWIDTH 400 0
DWIDTH 6 0
BBX 6 6 0 0
BITMAP
44
44
78
44
44
F8
ENDCHAR
STARTCHAR afii10068
ENCODING 1075
SWIDTH 350 0
DWIDTH 6 0
BBX 5 6 0 0
BITMAP
48
40
40
40
40
C0
ENDCHAR
STARTCHAR afii10069
ENCODING 1076
SWIDTH 400 0
DWIDTH 6 0
BBX 6 8 0 -2
BITMAP
08
08
08
08
48
FC
84
84
ENDCHAR
STARTCHAR afii10070
ENCODING 1077
SWIDTH 400 0
DWIDTH 6 0
BBX 6 6 0 0
BITMAP
48
84
FC
80
48
30
ENDCHAR
STARTCHAR afii10072
ENCODING 1078
SWIDTH 700 0
DWIDTH 11 0
BBX 10 6 0 0
BITMAP
0480
2500
1600
2D00
4440
CCC0
ENDCHAR
STARTCHAR afii10073
ENCODING 1079
SWIDTH 350 0
DWIDTH 6 0
BBX 5 6 0 0
BITMAP
C8
08
70
08
88
70
ENDCHAR
STARTCHAR afii10074
ENCODING 1080
SWIDTH 450 0
DWIDTH 7 0
BBX 5 6 1 0
BITMAP
98
A8
A8
C8
88
98
ENDCHAR
STARTCHAR afii10075
ENCODING 1081
SWIDTH 450 0
DWIDTH 7 0
BBX 5 9 1 0
BITMAP
88
70
00
98
A8
A8
C8
88
98
ENDCHAR
STARTCHAR afii10076
ENCODING 1082
SWIDTH 450 0
DWIDTH 7 0
BBX 6 6 0 0
BITMAP
48
50
60
50
44
CC
ENDCHAR
STARTCHAR afii10077
ENCODING 1083
SWIDTH 400 0
DWIDTH 6 0
BBX 6 6 0 0
BITMAP
08
08
08
08
08
DC
ENDCHAR
STARTCHAR afii10078
ENCODING 1084
SWIDTH 500 0
DWIDTH 8 0
BBX 7 6 0 0
BITMAP
44
68
50
50
40
C6
ENDCHAR
STARTCHAR afii10079
ENCODING 1085
SWIDTH 450 0
DWIDTH 7 0
BBX 6 6 0 0
BITMAP
44
44
7C
44
44
CC
ENDCHAR
STARTCHAR afii10080
ENCODING 1086
SWIDTH 400 0
DWIDTH 6 0
BBX 6 6 0 0
BITMAP
48
84
84
84
48
30
ENDCHAR
STARTCHAR afii10081
ENCODING 1087
SWIDTH 450 0
DWIDTH 7 0
BBX 6 6 0 0
BITMAP
44
44
44
44
44
CC
ENDCHAR
STARTCHAR afii10082
ENCODING 1088
SWIDTH 450 0
DWIDTH 7 0
BBX 6 9 0 -3
BITMAP
44
40
40
40
44
78
40
40
C0
ENDCHAR
STARTCHAR afii10083
ENCODING 1089
SWIDTH 400 0
DWIDTH 6 0
BBX 6 6 0 0
BITMAP
4C
84
80
80
48
30
ENDCHAR
STARTCHAR afii10084
ENCODING 1090
SWIDTH 400 0
DWIDTH 6 0
BBX 6 6 0 0
BITMAP
A4
20
20
20
20
30
ENDCHAR
STARTCHAR afii10085
ENCODING 1091
SWIDTH 400 0
DWIDTH 6 0
BBX 5 9 0 -3
BITMAP
48
48
10
10
20
20
00
00
80
ENDCHAR
STARTCHAR afii10086
ENCODING 1092
SWIDTH 600 0
DWIDTH 10 0
BBX 9 13 0 -3
BITMAP
1C00
0800
0800
0800
5D00
8880
8880
8880
5D00
2A00
0800
0800
1C00
ENDCHAR
STARTCHAR afii10087
ENCODING 1093
SWIDTH 400 0
DWIDTH 6 0
BBX 6 6 0 0
BITMAP
48
10
20
20
48
DC
ENDCHAR
STARTCHAR afii10088
ENCODING 1094
SWIDTH 450 0
DWIDTH 7 0
BBX 6 6 0 0
BITMAP
44
44
44
44
44
FC
ENDCHAR
STARTCHAR afii10089
ENCODING 1095
SWIDTH 450 0
DWIDTH 7 0
BBX 5 6 1 0
BITMAP
88
88
78
08
08
18
ENDCHAR
STARTCHAR afii10090
ENCODING 1096
SWIDTH 600 0
DWIDTH 10 0
BBX 9 6 0 0
BITMAP
4900
4900
4900
4900
4900
FF80
ENDCHAR
STARTCHAR afii10091
ENCODING 1097
SWIDTH 600 0
DWIDTH 10 0
BBX 9 8 0 -2
BITMAP
4900
4900
4900
4900
4900
FF80
0080
0080
ENDCHAR
STARTCHAR afii10092
ENCODING 1098
SWIDTH 500 0
DWIDTH 8 0
BBX 7 6 0 0
BITMAP
A0
20
3C
22
22
3C
ENDCHAR
STARTCHAR afii10093
ENCODING 1099
SWIDTH 550 0
DWIDTH 9 0
BBX 8 6 0 0
BITMAP
42
42
7A
46
46
FB
ENDCHAR
STARTCHAR afii10094
ENCODING 1100
SWIDTH 400 0
DWIDTH 6 0
BBX 6 6 0 0
BITMAP
40
40
78
44
44
F8
ENDCHAR
STARTCHAR afii10095
ENCODING 1101
SWIDTH 400 0
DWIDTH 6 0
BBX 6 6 0 0
BITMAP
C8
A4
3C
24
48
30
ENDCHAR
STARTCHAR afii10096
ENCODING 1102
SWIDTH 550 0
DWIDTH 9 0
BBX 8 6 0 0
BITMAP
52
61
61
61
52
CC
ENDCHAR
STARTCHAR afii10097
ENCODING 1103
SWIDTH 400 0
DWIDTH 6 0
BBX 6 6 0 0
BITMAP
88
88
88
78
08
DC
ENDCHAR
STARTCHAR uni0450
ENCODING 1104
SWIDTH 400 0
DWIDTH 6 0
BBX 6 8 0 0
BITMAP
20
00
48
84
FC
80
48
30
ENDCHAR
STARTCHAR afii10071
ENCODING 1105
SWIDTH 400 0
DWIDTH 6 0
BBX 6 8 0 0
BITMAP
10
00
48
84
FC
80
48
30
ENDCHAR
STARTCHAR afii10099
ENCODING 1106
SWIDTH 400 0
DWIDTH 6 0
BBX 6 13 0 -3
BITMAP
C0
40
C0
40
48
44
44
44
44
C4
04
04
30
ENDCHAR
STARTCHAR afii10100
ENCODING 1107
SWIDTH 350 0
DWIDTH 6 0
BBX 5 9 0 0
BITMAP
20
00
00
48
40
40
40
40
C0
ENDCHAR
STARTCHAR afii10101
ENCODING 1108
SWIDTH 400 0
DWIDTH 6 0
BBX 6 6 0 0
BITMAP
4C
A4
E0
A0
48
30
ENDCHAR
STARTCHAR afii10102
ENCODING 1109
SWIDTH 350 0
DWIDTH 6 0
BBX 5 6 0 0
BITMAP
98
88
40
30
C8
B0
ENDCHAR
STARTCHAR afii10103
ENCODING 1110
SWIDTH 200 0
DWIDTH 3 0
BBX 2 10 0 0
BITMAP
40
40
00
00
40
40
40
40
40
C0
ENDCHAR
STARTCHAR afii10104
ENCODING 1111
SWIDTH 200 0
DWIDTH 3 0
BBX 4 9 -1 0
BITMAP
D0
00
00
20
20
20
20
20
60
ENDCHAR
STARTCHAR afii10105
ENCODING 1112
SWIDTH 150 0
DWIDTH 2 0
BBX 4 13 -2 -3
BITMAP
10
10
00
00
10
10
10
10
10
10
10
10
C0
ENDCHAR
STARTCHAR afii10106
ENCODING 1113
SWIDTH 600 0
DWIDTH 10 0
BBX 9 6 0 0
BITMAP
0800
0800
0F00
0880
0880
DF00
ENDCHAR
STARTCHAR afii10107
ENCODING 1114
SWIDTH 600 0
DWIDTH 10 0
BBX 9 6 0 0
BITMAP
4800
4800
7F00
4880
4880
DF00
ENDCHAR
STARTCHAR afii10108
ENCODING 1115
SWIDTH 450 0
DWIDTH 7 0
BBX 6 10 0 0
BITMAP
C0
40
C0
40
48
44
44
44
44
CC
ENDCHAR
STARTCHAR afii10109
ENCODING 1116
SWIDTH 450 0
DWIDTH 7 0
BBX 6 9 0 0
BITMAP
10
20
00
48
50
60
50
44
CC
ENDCHAR
STARTCHAR uni045D
ENCODING 1117
SWIDTH 450 0
DWIDTH 7 0
BBX 5 9 1 0
BITMAP
40
20
00
98
A8
A8
C8
88
98
ENDCHAR
STARTCHAR afii10110
ENCODING 1118
SWIDTH 400 0
DWIDTH 6 0
BBX 5 12 0 -3
BITMAP
48
30
00
48
48
10
10
20
20
00
00
80
ENDCHAR
STARTCHAR afii10193
ENCODING 1119
SWIDTH 450 0
DWIDTH 7 0
BBX 6 8 0 -2
BITMAP
44
44
44
44
44
FC
10
10
ENDCHAR
STARTCHAR uni0460
ENCODING 1120
SWIDTH 700 0
DWIDTH 11 0
BBX 10 9 0 0
BITMAP
CCC0
4440
4440
0480
0480
2900
2900
1200
1200
ENDCHAR
STARTCHAR uni0461
ENCODING 1121
SWIDTH 500 0
DWIDTH 8 0
BBX 5 6 1 0
BITMAP
A0
A0
28
28
50
50
ENDCHAR
STARTCHAR uni0462
ENCODING 1122
SWIDTH 450 0
DWIDTH 7 0
BBX 7 9 -1 0
BITMAP
60
20
F0
20
3C
22
20
22
7C
ENDCHAR
STARTCHAR uni0463
ENCODING 1123
SWIDTH 400 0
DWIDTH 6 0
BBX 7 6 -1 0
BITMAP
20
F0
BC
22
22
7C
ENDCHAR
STARTCHAR uni0464
ENCODING 1124
SWIDTH 600 0
DWIDTH 10 0
BBX 9 9 0 0
BITMAP
C680
5980
5080
6200
7E00
6200
6000
5980
C600
ENDCHAR
STARTCHAR uni0465
ENCODING 1125
SWIDTH 550 0
DWIDTH 9 0
BBX 8 6 0 0
BITMAP
53
65
7C
64
52
CC
ENDCHAR
STARTCHAR uni0466
ENCODING 1126
SWIDTH 500 0
DWIDTH 8 0
BBX 7 9 0 0
BITMAP
30
10
28
28
04
04
2C
50
D6
ENDCHAR
STARTCHAR uni0467
ENCODING 1127
SWIDTH 400 0
DWIDTH 6 0
BBX 6 6 0 0
BITMAP
20
10
10
10
68
EC
ENDCHAR
STARTCHAR uni0468
ENCODING 1128
SWIDTH 700 0
DWIDTH 11 0
BBX 10 9 0 0
BITMAP
C200
4200
4100
4100
7C80
4480
4580
4A40
DEC0
ENDCHAR
STARTCHAR uni0469
ENCODING 1129
SWIDTH 600 0
DWIDTH 10 0
BBX 9 6 0 0
BITMAP
4000
4600
7E00
4600
4900
D980
ENDCHAR
STARTCHAR uni046A
ENCODING 1130
SWIDTH 600 0
DWIDTH 10 0
BBX 9 9 0 0
BITMAP
7F00
0200
2000
0800
3C00
0A00
4900
4900
DF80
ENDCHAR
STARTCHAR uni046B
ENCODING 1131
SWIDTH 600 0
DWIDTH 10 0
BBX 9 6 0 0
BITMAP
2000
1400
0800
3E00
4900
DF80
ENDCHAR
STARTCHAR uni046C
ENCODING 1132
SWIDTH 800 0
DWIDTH 13 0
BBX 12 9 0 0
BITMAP
CFE0
4400
4040
4100
7FC0
4500
4920
4920
DFB0
ENDCHAR
STARTCHAR uni046D
ENCODING 1133
SWIDTH 800 0
DWIDTH 13 0
BBX 12 6 0 0
BITMAP
4040
4280
4100
7FC0
4920
DFB0
ENDCHAR
STARTCHAR uni046E
ENCODING 1134
SWIDTH 400 0
DWIDTH 6 0
BBX 6 14 0 -3
BITMAP
10
00
B0
C8
84
08
30
08
04
08
70
80
80
08
ENDCHAR
STARTCHAR uni046F
ENCODING 1135
SWIDTH 350 0
DWIDTH 6 0
BBX 5 12 0 -3
BITMAP
50
20
00
C8
08
70
08
08
70
80
80
08
ENDCHAR
STARTCHAR uni0470
ENCODING 1136
SWIDTH 500 0
DWIDTH 8 0
BBX 8 9 0 0
BITMAP
B9
52
50
14
38
10
10
10
38
ENDCHAR
STARTCHAR uni0471
ENCODING 1137
SWIDTH 500 0
DWIDTH 8 0
BBX 6 9 1 -3
BITMAP
A4
A4
A0
A0
28
70
20
20
20
ENDCHAR
STARTCHAR uni0472
ENCODING 1138
SWIDTH 500 0
DWIDTH 8 0
BBX 7 9 0 0
BITMAP
38
44
40
A2
D2
8E
82
44
38
ENDCHAR
STARTCHAR uni0473
ENCODING 1139
SWIDTH 400 0
DWIDTH 6 0
BBX 6 6 0 0
BITMAP
48
84
AC
F4
48
30
ENDCHAR
STARTCHAR uni0474
ENCODING 1140
SWIDTH 500 0
DWIDTH 8 0
BBX 8 9 0 0
BITMAP
C2
41
40
04
04
28
28
10
10
ENDCHAR
STARTCHAR uni0475
ENCODING 1141
SWIDTH 400 0
DWIDTH 6 0
BBX 4 6 1 0
BITMAP
90
90
20
20
40
40
ENDCHAR
STARTCHAR uni0476
ENCODING 1142
SWIDTH 500 0
DWIDTH 8 0
BBX 8 11 0 0
BITMAP
10
00
C2
41
40
04
04
28
28
10
10
ENDCHAR
STARTCHAR uni0477
ENCODING 1143
SWIDTH 400 0
DWIDTH 6 0
BBX 4 9 1 0
BITMAP
C0
20
00
90
90
20
20
40
40
ENDCHAR
STARTCHAR uni0478
ENCODING 1144
SWIDTH 850 0
DWIDTH 14 0
BBX 12 12 0 -3
BITMAP
3800
4400
4000
8290
8290
8260
8260
4400
3800
0040
0040
0100
ENDCHAR
STARTCHAR uni0479
ENCODING 1145
SWIDTH 750 0
DWIDTH 12 0
BBX 10 8 0 -2
BITMAP
4A00
8600
8540
8540
4880
3080
0100
0100
ENDCHAR
STARTCHAR uni047A
ENCODING 1146
SWIDTH 550 0
DWIDTH 9 0
BBX 8 11 0 -1
BITMAP
18
3C
5A
42
81
81
81
81
5A
3C
18
ENDCHAR
STARTCHAR uni047B
ENCODING 1147
SWIDTH 450 0
DWIDTH 7 0
BBX 6 8 0 -1
BITMAP
30
74
80
80
80
74
38
30
ENDCHAR
STARTCHAR uni047C
ENCODING 1148
SWIDTH 700 0
DWIDTH 11 0
BBX 10 11 0 0
BITMAP
0200
1000
0080
4C40
4440
8000
8C00
8400
8400
4840
3380
ENDCHAR
STARTCHAR uni047D
ENCODING 1149
SWIDTH 600 0
DWIDTH 10 0
BBX 9 10 0 0
BITMAP
0100
7F00
4000
1800
4100
8080
9C80
8880
5500
2200
ENDCHAR
STARTCHAR uni047E
ENCODING 1150
SWIDTH 700 0
DWIDTH 11 0
BBX 10 11 0 0
BITMAP
3F00
0000
CCC0
4440
4440
0480
0480
2900
2900
1200
1200
ENDCHAR
STARTCHAR uni047F
ENCODING 1151
SWIDTH 500 0
DWIDTH 8 0
BBX 5 9 1 0
BITMAP
F8
A0
00
A0
A0
28
28
50
50
ENDCHAR
STARTCHAR uni0480
ENCODING 1152
SWIDTH 450 0
DWIDTH 7 0
BBX 6 11 0 -2
BITMAP
38
44
40
80
80
80
80
40
38
08
08
ENDCHAR
STARTCHAR uni0481
ENCODING 1153
SWIDTH 400 0
DWIDTH 6 0
BBX 6 8 0 -2
BITMAP
4C
84
80
80
40
30
10
10
ENDCHAR
STARTCHAR uni2000
ENCODING 8192
SWIDTH 500 0
DWIDTH 8 0
BBX 1 1 0 0
BITMAP
00
ENDCHAR
STARTCHAR uni2001
ENCODING 8193
SWIDTH 1000 0
DWIDTH 16 0
BBX 1 1 0 0
BITMAP
00
ENDCHAR
STARTCHAR uni2002
ENCODING 8194
SWIDTH 500 0
DWIDTH 8 0
BBX 1 1 0 0
BITMAP
00
ENDCHAR
STARTCHAR uni2003
ENCODING 8195
SWIDTH 1000 0
DWIDTH 16 0
BBX 1 1 0 0
BITMAP
00
ENDCHAR
STARTCHAR uni2004
ENCODING 8196
SWIDTH 350 0
DWIDTH 6 0
BBX 1 1 0 0
BITMAP
00
ENDCHAR
STARTCHAR uni2005
ENCODING 8197
SWIDTH 250 0
DWIDTH 4 0
BBX 1 1 0 0
BITMAP
00
ENDCHAR
STARTCHAR uni2006
ENCODING 8198
SWIDTH 150 0
DWIDTH 2 0
BBX 1 1 0 0
BITMAP
00
ENDCHAR
STARTCHAR uni2007
ENCODING 8199
SWIDTH 400 0
DWIDTH 6 0
BBX 1 1 0 0
BITMAP
00
ENDCHAR
STARTCHAR uni2008
ENCODING 8200
SWIDTH 200 0
DWIDTH 3 0
BBX 1 1 0 0
BITMAP
00
ENDCHAR
STARTCHAR uni2009
ENCODING 8201
SWIDTH 150 0
DWIDTH 2 0
BBX 1 1 0 0
BITMAP
00
ENDCHAR
STARTCHAR uni200A
ENCODING 8202
SWIDTH 50 0
DWIDTH 1 0
BBX 1 1 0 0
BITMAP
00
ENDCHAR
STARTCHAR uni200B
ENCODING 8203
SWIDTH 0 0
DWIDTH 0 0
BBX 1 1 0 0
BITMAP
00
ENDCHAR
STARTCHAR uni200C
ENCODING 8204
SWIDTH 0 0
DWIDTH 0 0
BBX 1 1 0 0
BITMAP
00
ENDCHAR
STARTCHAR uni200D
ENCODING 8205
SWIDTH 0 0
DWIDTH 0 0
BBX 1 1 0 0
BITMAP
00
ENDCHAR
STARTCHAR uni200E
ENCODING 8206
SWIDTH 0 0
DWIDTH 0 0
BBX 1 1 0 0
BITMAP
00
ENDCHAR
STARTCHAR uni200F
ENCODING 8207
SWIDTH 0 0
DWIDTH 0 0
BBX 1 1 0 0
BITMAP
00
ENDCHAR
STARTCHAR uni2010
ENCODING 8208
SWIDTH 350 0
DWIDTH 6 0
BBX 5 1 0 3
BITMAP
F8
ENDCHAR
STARTCHAR uni2011
ENCODING 8209
SWIDTH 350 0
DWIDTH 6 0
BBX 5 1 0 3
BITMAP
F8
ENDCHAR
STARTCHAR uni2012
ENCODING 8210
SWIDTH 400 0
DWIDTH 6 0
BBX 6 1 0 3
BITMAP
FC
ENDCHAR
STARTCHAR endash
ENCODING 8211
SWIDTH 400 0
DWIDTH 6 0
BBX 6 1 0 3
BITMAP
FC
ENDCHAR
STARTCHAR emdash
ENCODING 8212
SWIDTH 650 0
DWIDTH 10 0
BBX 10 1 0 3
BITMAP
FFC0
ENDCHAR
STARTCHAR afii00208
ENCODING 8213
SWIDTH 650 0
DWIDTH 10 0
BBX 10 1 0 3
BITMAP
FFC0
ENDCHAR
STARTCHAR uni2016
ENCODING 8214
SWIDTH 200 0
DWIDTH 3 0
BBX 1 12 0 -2
BITMAP
80
80
80
80
80
80
80
80
80
80
80
80
ENDCHAR
STARTCHAR underscoredbl
ENCODING 8215
SWIDTH 400 0
DWIDTH 6 0
BBX 6 1 0 -1
BITMAP
FC
ENDCHAR
STARTCHAR quoteleft
ENCODING 8216
SWIDTH 150 0
DWIDTH 2 0
BBX 2 4 0 6
BITMAP
40
80
C0
C0
ENDCHAR
STARTCHAR quoteright
ENCODING 8217
SWIDTH 150 0
DWIDTH 2 0
BBX 2 4 0 6
BITMAP
C0
C0
40
80
ENDCHAR
STARTCHAR quotesinglbase
ENCODING 8218
SWIDTH 150 0
DWIDTH 2 0
BBX 2 4 0 -2
BITMAP
C0
C0
40
80
ENDCHAR
STARTCHAR quotereversed
ENCODING 8219
SWIDTH 150 0
DWIDTH 2 0
BBX 2 4 0 6
BITMAP
C0
C0
80
40
ENDCHAR
STARTCHAR quotedblleft
ENCODING 8220
SWIDTH 300 0
DWIDTH 5 0
BBX 4 4 0 6
BITMAP
50
A0
F0
F0
ENDCHAR
STARTCHAR quotedblright
ENCODING 8221
SWIDTH 300 0
DWIDTH 5 0
BBX 4 4 0 6
BITMAP
F0
F0
50
A0
ENDCHAR
STARTCHAR quotedblbase
ENCODING 8222
SWIDTH 300 0
DWIDTH 5 0
BBX 4 4 0 -2
BITMAP
F0
F0
50
A0
ENDCHAR
STARTCHAR uni201F
ENCODING 8223
SWIDTH 300 0
DWIDTH 5 0
BBX 4 4 0 6
BITMAP
F0
F0
A0
50
ENDCHAR
STARTCHAR dagger
ENCODING 8224
SWIDTH 300 0
DWIDTH 5 0
BBX 4 1 0 7
BITMAP
F0
ENDCHAR
STARTCHAR daggerdbl
ENCODING 8225
SWIDTH 300 0
DWIDTH 5 0
BBX 4 3 0 5
BITMAP
F0
00
F0
ENDCHAR
STARTCHAR bullet
ENCODING 8226
SWIDTH 300 0
DWIDTH 5 0
BBX 4 4 0 2
BITMAP
F0
F0
F0
60
ENDCHAR
STARTCHAR uni2023
ENCODING 8227
SWIDTH 300 0
DWIDTH 5 0
BBX 4 4 0 2
BITMAP
C0
F0
C0
80
ENDCHAR
STARTCHAR uni2024
ENCODING 8228
SWIDTH 200 0
DWIDTH 3 0
BBX 1 2 1 0
BITMAP
80
80
ENDCHAR
STARTCHAR uni2025
ENCODING 8229
SWIDTH 350 0
DWIDTH 6 0
BBX 3 2 1 0
BITMAP
A0
A0
ENDCHAR
STARTCHAR ellipsis
ENCODING 8230
SWIDTH 500 0
DWIDTH 8 0
BBX 3 2 1 0
BITMAP
A0
A0
ENDCHAR
STARTCHAR uni2027
ENCODING 8231
SWIDTH 100 0
DWIDTH 2 0
BBX 1 2 0 4
BITMAP
80
80
ENDCHAR
STARTCHAR perthousand
ENCODING 8240
SWIDTH 650 0
DWIDTH 10 0
BBX 10 9 0 0
BITMAP
5C00
A400
A800
5000
1000
1580
2A40
0A40
0580
ENDCHAR
STARTCHAR uni2031
ENCODING 8241
SWIDTH 800 0
DWIDTH 13 0
BBX 12 9 0 0
BITMAP
5C00
A400
A800
5000
1000
15A0
2A50
0A50
05A0
ENDCHAR
STARTCHAR guilsinglleft
ENCODING 8249
SWIDTH 250 0
DWIDTH 4 0
BBX 3 4 0 1
BITMAP
40
80
40
20
ENDCHAR
STARTCHAR guilsinglright
ENCODING 8250
SWIDTH 250 0
DWIDTH 4 0
BBX 3 5 0 1
BITMAP
40
00
20
00
80
ENDCHAR
STARTCHAR exclamdbl
ENCODING 8252
SWIDTH 200 0
DWIDTH 3 0
BBX 1 9 0 0
BITMAP
80
80
80
80
80
80
80
80
80
ENDCHAR
STARTCHAR uni203D
ENCODING 8253
SWIDTH 400 0
DWIDTH 6 0
BBX 6 10 0 0
BITMAP
20
30
68
A4
28
30
20
20
20
20
ENDCHAR
STARTCHAR fraction
ENCODING 8260
SWIDTH 200 0
DWIDTH 3 0
BBX 9 9 -3 0
BITMAP
0080
0100
0200
0000
0800
1000
2000
0000
8000
ENDCHAR
STARTCHAR uni2047
ENCODING 8263
SWIDTH 800 0
DWIDTH 13 0
BBX 12 9 0 0
BITMAP
30C0
4920
8610
0820
1000
2040
2040
2040
2040
ENDCHAR
STARTCHAR uni2048
ENCODING 8264
SWIDTH 500 0
DWIDTH 8 0
BBX 7 9 0 0
BITMAP
32
4A
86
0A
12
22
22
22
22
ENDCHAR
STARTCHAR uni2049
ENCODING 8265
SWIDTH 500 0
DWIDTH 8 0
BBX 7 9 0 0
BITMAP
9C
A0
82
80
84
88
88
88
88
ENDCHAR
STARTCHAR Euro
ENCODING 8364
SWIDTH 550 0
DWIDTH 9 0
BBX 8 9 0 0
BITMAP
0D
33
21
F0
00
F0
00
33
0C
ENDCHAR
STARTCHAR uni2117
ENCODING 8471
SWIDTH 600 0
DWIDTH 10 0
BBX 9 9 0 0
BITMAP
1C00
2200
4100
A080
BC80
A080
6100
2200
1C00
ENDCHAR
STARTCHAR uni2120
ENCODING 8480
SWIDTH 500 0
DWIDTH 8 0
BBX 7 4 0 6
BITMAP
52
DA
16
D2
ENDCHAR
STARTCHAR trademark
ENCODING 8482
SWIDTH 500 0
DWIDTH 8 0
BBX 7 4 0 6
BITMAP
D2
5A
56
52
ENDCHAR
STARTCHAR Omega
ENCODING 8486
SWIDTH 550 0
DWIDTH 9 0
BBX 8 9 0 0
BITMAP
3C
42
42
81
81
42
42
A5
E7
ENDCHAR
STARTCHAR uni2127
ENCODING 8487
SWIDTH 550 0
DWIDTH 9 0
BBX 8 9 0 0
BITMAP
E7
A5
24
42
81
81
81
42
3C
ENDCHAR
STARTCHAR uni21E7
ENCODING 8679
SWIDTH 500 0
DWIDTH 8 0
BBX 7 9 0 0
BITMAP
10
28
04
C6
04
04
04
04
3C
ENDCHAR
STARTCHAR uni2200
ENCODING 8704
SWIDTH 500 0
DWIDTH 8 0
BBX 7 9 0 0
BITMAP
C6
40
40
3C
04
28
28
10
30
ENDCHAR
STARTCHAR uni2201
ENCODING 8705
SWIDTH 350 0
DWIDTH 6 0
BBX 5 9 0 0
BITMAP
28
58
48
80
80
80
80
48
30
ENDCHAR
STARTCHAR partialdiff
ENCODING 8706
SWIDTH 400 0
DWIDTH 6 0
BBX 6 10 0 0
BITMAP
20
10
08
04
0C
44
84
84
50
20
ENDCHAR
STARTCHAR uni2203
ENCODING 8707
SWIDTH 450 0
DWIDTH 7 0
BBX 6 9 0 0
BITMAP
FC
84
04
04
3C
04
04
84
FC
ENDCHAR
STARTCHAR uni2204
ENCODING 8708
SWIDTH 450 0
DWIDTH 7 0
BBX 6 12 0 -2
BITMAP
08
FC
94
14
24
3C
24
04
84
FC
40
40
ENDCHAR
STARTCHAR uni2205
ENCODING 8709
SWIDTH 600 0
DWIDTH 10 0
BBX 9 9 0 0
BITMAP
3C80
0300
4300
8480
8880
9080
A080
4200
BC00
ENDCHAR
STARTCHAR Delta
ENCODING 8710
SWIDTH 500 0
DWIDTH 8 0
BBX 7 9 0 0
BITMAP
10
10
10
28
04
04
40
82
FE
ENDCHAR
STARTCHAR uni2207
ENCODING 8711
SWIDTH 500 0
DWIDTH 8 0
BBX 7 9 0 0
BITMAP
FE
82
40
04
04
28
28
10
10
ENDCHAR
STARTCHAR uni2208
ENCODING 8712
SWIDTH 400 0
DWIDTH 6 0
BBX 6 9 0 0
BITMAP
3C
00
40
80
FC
80
80
00
3C
ENDCHAR
STARTCHAR uni2209
ENCODING 8713
SWIDTH 400 0
DWIDTH 6 0
BBX 6 12 0 -2
BITMAP
08
3C
10
50
A0
FC
A0
80
00
7C
40
40
ENDCHAR
STARTCHAR uni220A
ENCODING 8714
SWIDTH 300 0
DWIDTH 5 0
BBX 4 6 0 0
BITMAP
40
80
F0
80
40
30
ENDCHAR
STARTCHAR uni220B
ENCODING 8715
SWIDTH 400 0
DWIDTH 6 0
BBX 6 9 0 0
BITMAP
E0
10
08
04
FC
04
04
10
E0
ENDCHAR
STARTCHAR uni220C
ENCODING 8716
SWIDTH 400 0
DWIDTH 6 0
BBX 6 12 0 -2
BITMAP
08
E8
10
18
24
FC
24
04
10
E0
40
40
ENDCHAR
STARTCHAR uni220D
ENCODING 8717
SWIDTH 300 0
DWIDTH 5 0
BBX 4 6 0 0
BITMAP
20
10
F0
10
20
C0
ENDCHAR
STARTCHAR product
ENCODING 8719
SWIDTH 550 0
DWIDTH 9 0
BBX 8 12 0 -2
BITMAP
FF
42
42
42
42
42
42
42
42
42
42
42
ENDCHAR
STARTCHAR uni2210
ENCODING 8720
SWIDTH 550 0
DWIDTH 9 0
BBX 8 12 0 -2
BITMAP
C3
42
42
42
42
42
42
42
42
42
42
42
ENDCHAR
STARTCHAR summation
ENCODING 8721
SWIDTH 550 0
DWIDTH 9 0
BBX 8 12 0 -2
BITMAP
FF
41
40
00
20
20
10
20
00
00
40
41
ENDCHAR
STARTCHAR radical
ENCODING 8730
SWIDTH 500 0
DWIDTH 8 0
BBX 7 10 0 0
BITMAP
02
02
00
00
04
C8
48
10
20
20
ENDCHAR
STARTCHAR uni221B
ENCODING 8731
SWIDTH 500 0
DWIDTH 8 0
BBX 7 10 0 0
BITMAP
92
22
10
90
04
C8
48
10
20
20
ENDCHAR
STARTCHAR uni221C
ENCODING 8732
SWIDTH 500 0
DWIDTH 8 0
BBX 7 10 0 0
BITMAP
22
62
F0
20
04
C8
48
10
20
20
ENDCHAR
STARTCHAR uni221D
ENCODING 8733
SWIDTH 450 0
DWIDTH 7 0
BBX 6 4 0 2
BITMAP
A8
90
A8
44
ENDCHAR
STARTCHAR infinity
ENCODING 8734
SWIDTH 500 0
DWIDTH 8 0
BBX 7 4 0 2
BITMAP
AA
92
AA
44
ENDCHAR
STARTCHAR integral
ENCODING 8747
SWIDTH 300 0
DWIDTH 5 0
BBX 6 12 -1 -2
BITMAP
18
04
00
00
00
00
00
00
00
00
00
80
ENDCHAR
STARTCHAR uni222C
ENCODING 8748
SWIDTH 550 0
DWIDTH 9 0
BBX 10 12 -1 -2
BITMAP
1980
0440
0000
0000
0000
0000
0000
0000
0000
0000
0000
8800
ENDCHAR
STARTCHAR uni222D
ENCODING 8749
SWIDTH 800 0
DWIDTH 13 0
BBX 14 12 -1 -2
BITMAP
1998
0444
0000
0000
0000
0000
0000
0000
0000
0000
0000
8880
ENDCHAR
STARTCHAR approxequal
ENCODING 8776
SWIDTH 350 0
DWIDTH 6 0
BBX 5 4 0 2
BITMAP
48
B0
00
48
ENDCHAR
STARTCHAR uni2249
ENCODING 8777
SWIDTH 350 0
DWIDTH 6 0
BBX 5 9 0 -1
BITMAP
10
10
68
B0
00
48
00
40
40
ENDCHAR
STARTCHAR notequal
ENCODING 8800
SWIDTH 400 0
DWIDTH 6 0
BBX 6 4 0 2
BITMAP
10
FC
20
FC
ENDCHAR
STARTCHAR equivalence
ENCODING 8801
SWIDTH 350 0
DWIDTH 6 0
BBX 5 3 0 3
BITMAP
F8
00
F8
ENDCHAR
STARTCHAR uni2262
ENCODING 8802
SWIDTH 350 0
DWIDTH 6 0
BBX 5 7 0 0
BITMAP
10
F8
20
F8
00
40
40
ENDCHAR
STARTCHAR uni2263
ENCODING 8803
SWIDTH 350 0
DWIDTH 6 0
BBX 5 4 0 1
BITMAP
F8
00
F8
F8
ENDCHAR
STARTCHAR lessequal
ENCODING 8804
SWIDTH 250 0
DWIDTH 4 0
BBX 3 7 0 0
BITMAP
20
40
80
40
00
00
E0
ENDCHAR
STARTCHAR greaterequal
ENCODING 8805
SWIDTH 250 0
DWIDTH 4 0
BBX 3 7 0 0
BITMAP
80
00
20
00
40
00
E0
ENDCHAR
STARTCHAR uni2303
ENCODING 8963
SWIDTH 400 0
DWIDTH 6 0
BBX 4 3 1 6
BITMAP
40
20
90
ENDCHAR
STARTCHAR uni2318
ENCODING 8984
SWIDTH 600 0
DWIDTH 10 0
BBX 9 9 0 0
BITMAP
4300
A080
A080
2000
2000
2000
7F00
A080
4300
ENDCHAR
STARTCHAR uni2325
ENCODING 8997
SWIDTH 650 0
DWIDTH 10 0
BBX 10 9 0 0
BITMAP
E3C0
2000
1000
0800
0800
0400
0400
0000
03C0
ENDCHAR
STARTCHAR lozenge
ENCODING 9674
SWIDTH 300 0
DWIDTH 5 0
BBX 4 4 0 2
BITMAP
60
90
60
60
ENDCHAR
STARTCHAR uni2661
ENCODING 9825
SWIDTH 700 0
DWIDTH 11 0
BBX 10 9 0 0
BITMAP
3380
4840
8400
8000
4040
0080
2100
0800
0400
ENDCHAR
STARTCHAR heart
ENCODING 9829
SWIDTH 700 0
DWIDTH 11 0
BBX 10 9 0 0
BITMAP
3380
7BC0
FFC0
FFC0
7FC0
3F80
3F00
0C00
0400
ENDCHAR
STARTCHAR uniF600
ENCODING 62976
SWIDTH 1100 0
DWIDTH 18 0
BBX 18 9 0 0
BITMAP
0020C0
300100
480100
211900
425600
865600
856200
68A000
304000
ENDCHAR
STARTCHAR uniF601
ENCODING 62977
SWIDTH 1350 0
DWIDTH 22 0
BBX 21 11 0 -2
BITMAP
040300
1B04C0
20D820
20D820
1B04C0
040300
1B04C0
C02018
20D820
1B04C0
040300
ENDCHAR
STARTCHAR uniF602
ENCODING 62978
SWIDTH 750 0
DWIDTH 12 0
BBX 11 12 0 -2
BITMAP
0400
1B00
20C0
C020
9B20
8420
8020
8020
C020
20C0
1B00
0400
ENDCHAR
STARTCHAR uniF603
ENCODING 62979
SWIDTH 950 0
DWIDTH 15 0
BBX 14 12 0 -2
BITMAP
04C0
1820
14E0
1320
1920
25D8
C304
A5D8
8920
CB24
2CF8
1820
ENDCHAR
STARTCHAR uniF604
ENCODING 62980
SWIDTH 750 0
DWIDTH 12 0
BBX 11 12 0 -2
BITMAP
0400
1B00
36C0
E960
FB60
96A0
E960
96A0
D6A0
29C0
1F00
0400
ENDCHAR
STARTCHAR uniF605
ENCODING 62981
SWIDTH 750 0
DWIDTH 12 0
BBX 9 10 1 -1
BITMAP
0800
3E00
7F80
C980
F780
FF80
FF80
7F80
3E00
0800
ENDCHAR
STARTCHAR uniF606
ENCODING 62982
SWIDTH 800 0
DWIDTH 13 0
BBX 12 11 0 -2
BITMAP
0600
0900
0000
0000
0000
0000
0000
0F00
B0D0
C030
E070
ENDCHAR
STARTCHAR uniF607
ENCODING 62983
SWIDTH 850 0
DWIDTH 14 0
BBX 13 12 0 -2
BITMAP
2400
1800
0000
5410
8028
63C8
33C8
3010
2390
2450
2450
0490
ENDCHAR
STARTCHAR uniF608
ENCODING 62984
SWIDTH 1200 0
DWIDTH 19 0
BBX 19 16 0 -5
BITMAP
95FFE0
95FFE0
95FFE0
95FFE0
95FFE0
95FFE0
95FFE0
95FFE0
95FFE0
95FFE0
95FFE0
95FFE0
95FFE0
95FFE0
95FFE0
95FFE0
ENDCHAR
STARTCHAR uniF609
ENCODING 62985
SWIDTH 1200 0
DWIDTH 19 0
BBX 19 16 0 -5
BITMAP
FBB560
FBB560
FBB560
FBB560
FBB560
FBB560
FBB560
FBB560
FBB560
FBB560
FBB560
FBB560
FBB560
FBB560
FBB560
FBB560
ENDCHAR
STARTCHAR uniF60A
ENCODING 62986
SWIDTH 800 0
DWIDTH 13 0
BBX 13 16 0 -5
BITMAP
80F8
8AF8
96F8
A8F8
96F8
96F8
A8F8
96F8
8AF8
A8F8
96F8
8AF8
96F8
96F8
8AF8
B4F8
ENDCHAR
STARTCHAR uniF60B
ENCODING 62987
SWIDTH 800 0
DWIDTH 13 0
BBX 13 16 0 -5
BITMAP
F808
F8A8
F968
FA88
F968
F968
FA88
F968
F8A8
FA88
F968
F8A8
F968
F968
F8A8
FB48
ENDCHAR
STARTCHAR uniF60C
ENCODING 62988
SWIDTH 1200 0
DWIDTH 19 0
BBX 6 16 1 -5
BITMAP
D4
D4
D4
D4
D4
D4
D4
D4
D4
D4
D4
D4
D4
D4
D4
D4
ENDCHAR
STARTCHAR uniF60D
ENCODING 62989
SWIDTH 1200 0
DWIDTH 19 0
BBX 12 16 5 -5
BITMAP
8950
8950
8950
8950
8950
8950
8950
8950
8950
8950
8950
8950
8950
8950
8950
8950
ENDCHAR
STARTCHAR uniF60E
ENCODING 62990
SWIDTH 800 0
DWIDTH 13 0
BBX 7 16 1 -5
BITMAP
FE
EA
D2
AE
D2
D2
AE
D2
EA
AE
D2
EA
D2
D2
EA
96
ENDCHAR
STARTCHAR uniF60F
ENCODING 62991
SWIDTH 800 0
DWIDTH 13 0
BBX 7 16 5 -5
BITMAP
FE
EA
D2
AE
D2
D2
AE
D2
EA
AE
D2
EA
D2
D2
EA
96
ENDCHAR
STARTCHAR uniF610
ENCODING 62992
SWIDTH 800 0
DWIDTH 13 0
BBX 12 9 0 0
BITMAP
FFF0
A650
2040
2040
2040
2040
2040
2040
30C0
ENDCHAR
STARTCHAR uniF611
ENCODING 62993
SWIDTH 400 0
DWIDTH 6 0
BBX 5 10 1 0
BITMAP
90
90
90
90
90
90
90
90
90
48
ENDCHAR
STARTCHAR uniF700
ENCODING 63232
SWIDTH 450 0
DWIDTH 7 0
BBX 6 11 0 0
BITMAP
24
00
CC
44
48
60
50
48
48
44
CC
ENDCHAR
STARTCHAR uniF701
ENCODING 63233
SWIDTH 450 0
DWIDTH 7 0
BBX 6 11 0 0
BITMAP
24
00
C0
40
40
48
50
60
50
44
CC
ENDCHAR
STARTCHAR uniF702
ENCODING 63234
SWIDTH 750 0
DWIDTH 12 0
BBX 11 9 0 0
BITMAP
C600
4000
4000
4000
4000
4000
4000
4020
FFE0
ENDCHAR
STARTCHAR uniF703
ENCODING 63235
SWIDTH 350 0
DWIDTH 6 0
BBX 5 10 0 0
BITMAP
F0
50
50
50
50
50
50
50
50
F8
ENDCHAR
STARTCHAR uniF704
ENCODING 63236
SWIDTH 600 0
DWIDTH 10 0
BBX 9 11 0 0
BITMAP
3A00
0000
C180
4300
6100
4900
4900
4100
4100
4100
C380
ENDCHAR
STARTCHAR uniF705
ENCODING 63237
SWIDTH 700 0
DWIDTH 11 0
BBX 10 9 0 0
BITMAP
3900
0600
0000
4880
4440
4440
4440
4440
CCC0
ENDCHAR
STARTCHAR uniF706
ENCODING 63238
SWIDTH 900 0
DWIDTH 14 0
BBX 14 9 0 0
BITMAP
3B9C
4508
4108
8108
81F8
8108
8108
4508
3B9C
ENDCHAR
STARTCHAR uniF707
ENCODING 63239
SWIDTH 800 0
DWIDTH 13 0
BBX 12 10 0 0
BITMAP
0200
0200
0200
0200
4F00
8620
8220
8220
4A20
3330
ENDCHAR
STARTCHAR uniF708
ENCODING 63240
SWIDTH 850 0
DWIDTH 14 0
BBX 13 9 0 0
BITMAP
3738
4E10
8610
4210
33F0
0A10
0610
CA10
B338
ENDCHAR
STARTCHAR uniF709
ENCODING 63241
SWIDTH 750 0
DWIDTH 12 0
BBX 11 10 0 0
BITMAP
0400
0000
0000
0000
9A40
8800
4000
3000
C800
B660
ENDCHAR
STARTCHAR uniF70A
ENCODING 63242
SWIDTH 850 0
DWIDTH 14 0
BBX 13 9 0 0
BITMAP
FF38
A610
2210
2210
23F0
2210
2210
2210
3338
ENDCHAR
STARTCHAR uniF70B
ENCODING 63243
SWIDTH 650 0
DWIDTH 10 0
BBX 9 10 1 0
BITMAP
B000
9000
9000
9000
9A00
9100
9100
9100
9100
7B80
ENDCHAR
STARTCHAR uniF70C
ENCODING 63244
SWIDTH 500 0
DWIDTH 8 0
BBX 7 9 0 0
BITMAP
C4
40
40
40
40
40
40
40
FE
ENDCHAR
STARTCHAR uniF70D
ENCODING 63245
SWIDTH 850 0
DWIDTH 14 0
BBX 13 9 0 0
BITMAP
3B00
4500
4100
81A0
8110
8110
8110
4510
3BB8
ENDCHAR
STARTCHAR uniF70E
ENCODING 63246
SWIDTH 800 0
DWIDTH 13 0
BBX 12 9 0 0
BITMAP
3600
4E00
8600
4300
3220
0A20
0620
CA20
B330
ENDCHAR
STARTCHAR uniF70F
ENCODING 63247
SWIDTH 800 0
DWIDTH 13 0
BBX 12 9 0 0
BITMAP
FE00
A600
2200
2300
2220
2220
2220
2220
3330
ENDCHAR
STARTCHAR uniF710
ENCODING 63248
SWIDTH 1000 0
DWIDTH 16 0
BBX 15 9 0 0
BITMAP
0006
0008
0410
52A4
6124
5100
88C0
8404
8238
ENDCHAR
STARTCHAR uniF711
ENCODING 63249
SWIDTH 500 0
DWIDTH 8 0
BBX 7 9 0 0
BITMAP
A0
80
C0
A0
00
0A
08
08
0A
ENDCHAR
STARTCHAR uniF712
ENCODING 63250
SWIDTH 750 0
DWIDTH 12 0
BBX 11 9 0 0
BITMAP
A000
8000
C000
A800
0C00
0860
0E80
0020
00C0
ENDCHAR
STARTCHAR uniF713
ENCODING 63251
SWIDTH 500 0
DWIDTH 8 0
BBX 7 9 0 0
BITMAP
A0
80
C0
A0
00
06
08
02
0C
ENDCHAR
STARTCHAR uniF714
ENCODING 63252
SWIDTH 550 0
DWIDTH 9 0
BBX 8 9 0 0
BITMAP
60
80
A0
68
08
0B
32
02
03
ENDCHAR
STARTCHAR uniF715
ENCODING 63253
SWIDTH 600 0
DWIDTH 10 0
BBX 5 5 2 2
BITMAP
58
58
A0
58
A0
ENDCHAR
STARTCHAR uniF71C
ENCODING 63260
SWIDTH 450 0
DWIDTH 7 0
BBX 11 10 -5 -4
BITMAP
0260
0420
0420
0420
0260
01A0
0020
0040
7E00
8000
ENDCHAR
STARTCHAR uniF71D
ENCODING 63261
SWIDTH 150 0
DWIDTH 2 0
BBX 10 14 -8 -4
BITMAP
0040
0040
0000
0000
0040
0040
0040
0040
0040
0040
0040
0080
7C00
8000
ENDCHAR
STARTCHAR uniF71E
ENCODING 63262
SWIDTH 350 0
DWIDTH 6 0
BBX 11 8 -6 -2
BITMAP
0260
0220
0100
00C0
0020
0040
0080
FF00
ENDCHAR
STARTCHAR uniF71F
ENCODING 63263
SWIDTH 400 0
DWIDTH 6 0
BBX 12 10 -7 -4
BITMAP
0090
0090
0020
0020
0040
0040
0000
0080
7C00
8000
ENDCHAR
STARTCHAR uniFB00
ENCODING 64256
SWIDTH 400 0
DWIDTH 6 0
BBX 7 10 0 0
BITMAP
32
04
48
48
48
48
48
48
48
DC
ENDCHAR
STARTCHAR fi
ENCODING 64257
SWIDTH 400 0
DWIDTH 6 0
BBX 6 10 0 0
BITMAP
30
00
40
40
48
48
48
48
48
DC
ENDCHAR
STARTCHAR fl
ENCODING 64258
SWIDTH 400 0
DWIDTH 6 0
BBX 6 10 0 0
BITMAP
38
08
48
48
48
48
48
48
48
DC
ENDCHAR
STARTCHAR uniFB03
ENCODING 64259
SWIDTH 600 0
DWIDTH 10 0
BBX 9 10 0 0
BITMAP
3200
0400
4800
4800
4900
4900
4900
4900
4900
DF80
ENDCHAR
STARTCHAR uniFB04
ENCODING 64260
SWIDTH 600 0
DWIDTH 10 0
BBX 9 10 0 0
BITMAP
3300
0500
4900
4900
4900
4900
4900
4900
4900
DF80
ENDCHAR
STARTCHAR uniFB05
ENCODING 64261
SWIDTH 400 0
DWIDTH 6 0
BBX 6 10 0 0
BITMAP
38
08
48
48
48
48
48
48
48
C4
ENDCHAR
STARTCHAR uniFB06
ENCODING 64262
SWIDTH 550 0
DWIDTH 9 0
BBX 9 10 0 0
BITMAP
0200
0E00
1200
1200
9A00
8A00
4200
3200
CA00
B180
ENDCHAR
STARTCHAR uniFB07
ENCODING 64263
SWIDTH 600 0
DWIDTH 10 0
BBX 10 10 0 0
BITMAP
0100
0500
0B00
0900
4D00
8500
8100
8100
4900
30C0
ENDCHAR
STARTCHAR .notdef
ENCODING -1
SWIDTH 0 0
DWIDTH 0 0
BBX 1 1 0 0
BITMAP
00
ENDCHAR
STARTCHAR .null
ENCODING -1
SWIDTH 0 0
DWIDTH 0 0
BBX 1 1 0 0
BITMAP
00
ENDCHAR
STARTCHAR nonmarkingreturn
ENCODING -1
SWIDTH 0 0
DWIDTH 0 0
BBX 1 1 0 0
BITMAP
00
ENDCHAR
ENDFONT
